<?xml version="1.0" encoding="UTF-8"?>
<!DOCTYPE svg PUBLIC "-//W3C//DTD SVG 1.1//EN" "http://www.w3.org/Graphics/SVG/1.1/DTD/svg11.dtd">
<svg xmlns="http://www.w3.org/2000/svg" version="1.1" width="794px" height="144px" style="shape-rendering:geometricPrecision; text-rendering:geometricPrecision; image-rendering:optimizeQuality; fill-rule:evenodd; clip-rule:evenodd" xmlns:xlink="http://www.w3.org/1999/xlink">
<g><path style="opacity:0.992" fill="#50988b" d="M 151.5,-0.5 C 157.5,-0.5 163.5,-0.5 169.5,-0.5C 170.073,2.14659 170.74,4.81326 171.5,7.5C 180.844,0.931686 191.177,-1.23498 202.5,1C 203.444,3.71914 203.777,6.55247 203.5,9.5C 202.833,9.5 202.5,9.83333 202.5,10.5C 199.877,14.7908 196.544,18.4575 192.5,21.5C 194.557,17.933 197.223,14.7663 200.5,12C 190.42,10.2499 181.753,12.9166 174.5,20C 170.964,23.2012 167.797,26.7012 165,30.5C 152.333,47.8333 139.667,65.1667 127,82.5C 100.919,113.081 68.0856,125.247 28.5,119C 27.3895,116.263 27.2228,113.429 28,110.5C 28.804,109.196 29.9707,108.529 31.5,108.5C 64.0359,112.602 91.5359,102.935 114,79.5C 127.732,62.3668 140.732,44.7001 153,26.5C 157.504,20.964 162.337,15.7974 167.5,11C 160.129,9.69043 153.129,10.6904 146.5,14C 129.892,30.6079 114.725,48.4413 101,67.5C 72.2304,94.3222 38.3971,103.989 -0.5,96.5C -0.5,93.5 -0.5,90.5 -0.5,87.5C 19.0768,88.9153 38.4101,87.082 57.5,82C 70.9407,76.5529 82.774,68.7196 93,58.5C 104.453,43.3783 116.287,28.545 128.5,14C 132.167,11 135.833,8 139.5,5C 143.284,2.47128 147.284,0.637951 151.5,-0.5 Z"/></g>
<g><path style="opacity:0.994" fill="#50988b" d="M 142.5,108.5 C 138.167,112.167 134.167,116.167 130.5,120.5C 116.071,133.881 99.0712,141.548 79.5,143.5C 75.5,143.5 71.5,143.5 67.5,143.5C 58.7992,143.623 56.4658,139.79 60.5,132C 84.5086,134.329 105.509,127.662 123.5,112C 128.7,107.135 133.533,101.968 138,96.5C 155.643,71.0382 173.81,46.0382 192.5,21.5C 196.544,18.4575 199.877,14.7908 202.5,10.5C 203.167,10.5 203.5,10.1667 203.5,9.5C 213.481,1.33737 224.648,-0.995966 237,2.5C 238.004,5.99257 237.504,9.15923 235.5,12C 226.127,10.9165 217.793,13.2499 210.5,19C 207.667,21.8333 204.833,24.6667 202,27.5C 183.076,55.2444 163.242,82.2444 142.5,108.5 Z"/></g>
<g><path style="opacity:0.902" fill="#449283" d="M 523.5,26.5 C 529.577,26.1959 535.577,26.6959 541.5,28C 542.444,30.7191 542.777,33.5525 542.5,36.5C 538.755,34.6394 534.755,33.306 530.5,32.5C 527.778,32.6622 525.778,33.8289 524.5,36C 524.645,36.772 524.978,37.4387 525.5,38C 530.236,39.0808 534.903,40.4141 539.5,42C 544.773,47.5947 544.773,53.2614 539.5,59C 531.982,61.9409 524.315,62.2742 516.5,60C 514.656,57.1963 513.989,54.0297 514.5,50.5C 518.787,52.5522 523.287,54.2188 528,55.5C 530.664,55.2514 532.831,54.0847 534.5,52C 534.002,50.8419 533.169,50.0085 532,49.5C 527.811,48.4111 523.644,47.2445 519.5,46C 512.08,37.6865 513.413,31.1865 523.5,26.5 Z"/></g>
<g><path style="opacity:0.934" fill="#449283" d="M 310.5,27.5 C 317.841,27.3337 325.174,27.5003 332.5,28C 335.057,28.6853 336.891,30.1853 338,32.5C 339.942,38.8897 338.109,43.7231 332.5,47C 336.167,51.3333 339.833,55.6667 343.5,60C 339.5,60.6667 335.5,60.6667 331.5,60C 328.642,56.6421 325.975,53.1421 323.5,49.5C 322.311,48.5713 320.978,48.238 319.5,48.5C 319.5,52.5 319.5,56.5 319.5,60.5C 316.5,60.5 313.5,60.5 310.5,60.5C 310.5,49.5 310.5,38.5 310.5,27.5 Z M 319.5,33.5 C 322.602,33.154 325.435,33.8207 328,35.5C 328.743,37.4406 328.576,39.2739 327.5,41C 324.986,42.2525 322.32,42.7525 319.5,42.5C 319.5,39.5 319.5,36.5 319.5,33.5 Z"/></g>
<g><path style="opacity:0.875" fill="#449283" d="M 345.5,27.5 C 348.833,27.5 352.167,27.5 355.5,27.5C 355.334,35.84 355.5,44.1733 356,52.5C 359.391,56.4696 362.724,56.4696 366,52.5C 366.5,44.1733 366.666,35.84 366.5,27.5C 369.833,27.5 373.167,27.5 376.5,27.5C 376.666,36.1731 376.5,44.8397 376,53.5C 373.04,59.7266 368.04,62.3932 361,61.5C 354.635,62.3879 349.968,60.0545 347,54.5C 345.586,45.5822 345.086,36.5822 345.5,27.5 Z"/></g>
<g><path style="opacity:0.901" fill="#449283" d="M 383.5,27.5 C 387.182,27.3347 390.848,27.5014 394.5,28C 396.795,32.7589 398.962,37.5923 401,42.5C 403.357,37.6195 405.857,32.7862 408.5,28C 412.152,27.5014 415.818,27.3347 419.5,27.5C 419.5,38.5 419.5,49.5 419.5,60.5C 416.167,60.5 412.833,60.5 409.5,60.5C 409.666,54.4908 409.499,48.4908 409,42.5C 407.472,45.4167 406.139,48.4167 405,51.5C 402.333,52.8333 399.667,52.8333 397,51.5C 395.941,48.3821 394.608,45.3821 393,42.5C 392.501,48.4908 392.334,54.4908 392.5,60.5C 389.5,60.5 386.5,60.5 383.5,60.5C 383.5,49.5 383.5,38.5 383.5,27.5 Z"/></g>
<g><path style="opacity:0.916" fill="#449283" d="M 435.5,27.5 C 439.5,27.5 443.5,27.5 447.5,27.5C 451.003,38.5071 455.003,49.3405 459.5,60C 456.167,60.6667 452.833,60.6667 449.5,60C 448.308,58.0876 447.308,56.0876 446.5,54C 442.789,53.1747 439.122,53.3414 435.5,54.5C 434.833,56.1667 434.167,57.8333 433.5,59.5C 430.167,60.8333 426.833,60.8333 423.5,59.5C 428.069,49.0315 432.069,38.3648 435.5,27.5 Z M 440.5,38.5 C 442.383,40.7634 443.716,43.4301 444.5,46.5C 442.235,47.6474 439.902,47.8141 437.5,47C 438.929,44.3103 439.929,41.4769 440.5,38.5 Z"/></g>
<g><path style="opacity:0.924" fill="#449283" d="M 462.5,27.5 C 465.5,27.5 468.5,27.5 471.5,27.5C 471.5,31.5 471.5,35.5 471.5,39.5C 475.5,39.5 479.5,39.5 483.5,39.5C 483.5,35.5 483.5,31.5 483.5,27.5C 486.833,27.5 490.167,27.5 493.5,27.5C 493.5,38.5 493.5,49.5 493.5,60.5C 490.167,60.5 486.833,60.5 483.5,60.5C 483.5,55.5 483.5,50.5 483.5,45.5C 479.5,45.5 475.5,45.5 471.5,45.5C 471.5,50.5 471.5,55.5 471.5,60.5C 468.5,60.5 465.5,60.5 462.5,60.5C 462.5,49.5 462.5,38.5 462.5,27.5 Z"/></g>
<g><path style="opacity:0.916" fill="#449283" d="M 557.5,27.5 C 561.5,27.5 565.5,27.5 569.5,27.5C 573.003,38.5071 577.003,49.3405 581.5,60C 578.167,60.6667 574.833,60.6667 571.5,60C 570.308,58.0876 569.308,56.0876 568.5,54C 564.789,53.1747 561.122,53.3414 557.5,54.5C 556.833,56.1667 556.167,57.8333 555.5,59.5C 552.167,60.8333 548.833,60.8333 545.5,59.5C 550.069,49.0315 554.069,38.3648 557.5,27.5 Z M 562.5,38.5 C 564.383,40.7634 565.716,43.4301 566.5,46.5C 564.235,47.6474 561.902,47.8141 559.5,47C 560.929,44.3103 561.929,41.4769 562.5,38.5 Z"/></g>
<g><path style="opacity:0.922" fill="#449283" d="M 584.5,27.5 C 587.5,27.5 590.5,27.5 593.5,27.5C 593.334,31.8461 593.501,36.1794 594,40.5C 597.5,36.3333 601,32.1667 604.5,28C 608.167,27.3333 611.833,27.3333 615.5,28C 611.106,32.7225 607.106,37.7225 603.5,43C 607.819,48.6558 612.153,54.3224 616.5,60C 612.5,60.6667 608.5,60.6667 604.5,60C 601.453,56.0745 598.286,52.2412 595,48.5C 593.576,52.2968 593.076,56.2968 593.5,60.5C 590.5,60.5 587.5,60.5 584.5,60.5C 584.5,49.5 584.5,38.5 584.5,27.5 Z"/></g>
<g><path style="opacity:0.945" fill="#449283" d="M 618.5,27.5 C 625.5,27.5 632.5,27.5 639.5,27.5C 639.5,29.5 639.5,31.5 639.5,33.5C 637.5,33.5 635.5,33.5 633.5,33.5C 633.5,40.5 633.5,47.5 633.5,54.5C 635.5,54.5 637.5,54.5 639.5,54.5C 639.5,56.5 639.5,58.5 639.5,60.5C 632.5,60.5 625.5,60.5 618.5,60.5C 618.5,58.5 618.5,56.5 618.5,54.5C 620.5,54.5 622.5,54.5 624.5,54.5C 624.5,47.5 624.5,40.5 624.5,33.5C 622.5,33.5 620.5,33.5 618.5,33.5C 618.5,31.5 618.5,29.5 618.5,27.5 Z"/></g>
<g><path style="opacity:0.954" fill="#449283" d="M 641.5,27.5 C 651.833,27.5 662.167,27.5 672.5,27.5C 672.5,29.5 672.5,31.5 672.5,33.5C 668.833,33.5 665.167,33.5 661.5,33.5C 661.5,42.5 661.5,51.5 661.5,60.5C 658.5,60.5 655.5,60.5 652.5,60.5C 652.5,51.5 652.5,42.5 652.5,33.5C 648.833,33.5 645.167,33.5 641.5,33.5C 641.5,31.5 641.5,29.5 641.5,27.5 Z"/></g>
<g><path style="opacity:0.999" fill="#e7791a" d="M 271.5,40.5 C 267.072,48.6807 263.239,57.0141 260,65.5C 268.932,64.1719 277.765,64.1719 286.5,65.5C 283.884,71.0632 281.551,76.7299 279.5,82.5C 279.672,83.4916 279.338,84.1583 278.5,84.5C 275.326,89.5156 272.659,94.8489 270.5,100.5C 260.478,100.168 250.478,100.501 240.5,101.5C 238.547,105.069 236.881,108.736 235.5,112.5C 233.785,116.931 231.785,121.265 229.5,125.5C 216.851,126.499 204.184,126.832 191.5,126.5C 194.782,119.605 197.782,112.605 200.5,105.5C 200.833,104.167 201.167,102.833 201.5,101.5C 202.833,101.167 202.833,100.833 201.5,100.5C 192.766,101.135 184.433,100.468 176.5,98.5C 177.264,95.9823 178.264,93.649 179.5,91.5C 182.29,87.5844 184.29,83.251 185.5,78.5C 185.328,77.5084 185.662,76.8417 186.5,76.5C 188.599,73.1441 190.599,69.6441 192.5,66C 201.16,65.5002 209.827,65.3336 218.5,65.5C 218.833,65.5 219.167,65.5 219.5,65.5C 220.376,65.6309 221.043,65.2975 221.5,64.5C 225.372,56.5886 229.372,48.7552 233.5,41C 246.162,40.5001 258.829,40.3334 271.5,40.5 Z"/></g>
<g><path style="opacity:0.329" fill="#f3bc8c" d="M 271.5,40.5 C 258.829,40.3334 246.162,40.5001 233.5,41C 229.372,48.7552 225.372,56.5886 221.5,64.5C 221.043,65.2975 220.376,65.6309 219.5,65.5C 223.693,56.9486 228.026,48.4486 232.5,40C 245.673,39.1731 258.673,39.3398 271.5,40.5 Z"/></g>
<g><path style="opacity:0.184" fill="#f7d1b0" d="M 218.5,65.5 C 209.827,65.3336 201.16,65.5002 192.5,66C 190.599,69.6441 188.599,73.1441 186.5,76.5C 187.469,72.392 189.136,68.5586 191.5,65C 200.676,64.176 209.676,64.3427 218.5,65.5 Z"/></g>
<g><path style="opacity:0.078" fill="#f2b784" d="M 286.5,65.5 C 287.573,66.2506 287.74,67.2506 287,68.5C 284.726,73.3874 282.226,78.0541 279.5,82.5C 281.551,76.7299 283.884,71.0632 286.5,65.5 Z"/></g>
<g><path style="opacity:0.917" fill="#449283" d="M 705.5,79.5 C 725.984,78.4923 733.151,87.8256 727,107.5C 721.289,114.137 714.123,116.304 705.5,114C 697.331,111.345 693.665,105.678 694.5,97C 693.786,88.2358 697.452,82.4024 705.5,79.5 Z M 710.5,87.5 C 715.662,88.0975 718.329,91.0975 718.5,96.5C 718.551,101.425 716.384,104.758 712,106.5C 707.04,105.212 704.874,102.045 705.5,97C 704.828,92.5267 706.495,89.36 710.5,87.5 Z"/></g>
<g><path style="opacity:0.239" fill="#f2b987" d="M 185.5,78.5 C 184.29,83.251 182.29,87.5844 179.5,91.5C 180.71,86.749 182.71,82.4156 185.5,78.5 Z"/></g>
<g><path style="opacity:0.917" fill="#449283" d="M 309.5,80.5 C 314.179,80.3342 318.845,80.5008 323.5,81C 325.227,86.4059 326.727,91.9059 328,97.5C 330.217,92.0174 331.717,86.3507 332.5,80.5C 337.5,80.5 342.5,80.5 347.5,80.5C 347.5,91.5 347.5,102.5 347.5,113.5C 344.5,113.5 341.5,113.5 338.5,113.5C 338.666,106.492 338.5,99.4921 338,92.5C 336.266,99.2008 334.433,105.867 332.5,112.5C 329.572,113.484 326.572,113.817 323.5,113.5C 322.32,106.778 320.82,100.111 319,93.5C 318.5,100.158 318.334,106.825 318.5,113.5C 315.5,113.5 312.5,113.5 309.5,113.5C 309.5,102.5 309.5,91.5 309.5,80.5 Z"/></g>
<g><path style="opacity:0.933" fill="#449283" d="M 354.5,80.5 C 358.167,80.5 361.833,80.5 365.5,80.5C 365.5,91.5 365.5,102.5 365.5,113.5C 361.833,113.5 358.167,113.5 354.5,113.5C 354.5,102.5 354.5,91.5 354.5,80.5 Z"/></g>
<g><path style="opacity:0.962" fill="#449283" d="M 373.5,80.5 C 383.833,80.5 394.167,80.5 404.5,80.5C 404.5,83.1667 404.5,85.8333 404.5,88.5C 401.167,88.5 397.833,88.5 394.5,88.5C 394.5,96.8333 394.5,105.167 394.5,113.5C 390.833,113.5 387.167,113.5 383.5,113.5C 383.5,105.167 383.5,96.8333 383.5,88.5C 380.167,88.5 376.833,88.5 373.5,88.5C 373.5,85.8333 373.5,83.1667 373.5,80.5 Z"/></g>
<g><path style="opacity:0.934" fill="#449283" d="M 410.5,80.5 C 418.84,80.3336 427.173,80.5003 435.5,81C 440.992,84.1418 442.492,88.6418 440,94.5C 438.891,96.8147 437.057,98.3147 434.5,99C 438.481,102.82 441.481,107.32 443.5,112.5C 439.167,113.833 434.833,113.833 430.5,112.5C 423.919,96.6379 420.919,96.9712 421.5,113.5C 417.833,113.5 414.167,113.5 410.5,113.5C 410.5,102.5 410.5,91.5 410.5,80.5 Z M 421.5,88.5 C 423.857,88.3367 426.19,88.5034 428.5,89C 428.957,89.414 429.291,89.914 429.5,90.5C 427.149,92.2289 424.482,92.8956 421.5,92.5C 421.5,91.1667 421.5,89.8333 421.5,88.5 Z"/></g>
<g><path style="opacity:0.931" fill="#449283" d="M 457.5,80.5 C 461.767,80.203 465.934,80.5363 470,81.5C 473.932,91.7947 477.765,102.128 481.5,112.5C 477.878,113.659 474.211,113.825 470.5,113C 469.833,111.667 469.167,110.333 468.5,109C 464.848,108.501 461.182,108.335 457.5,108.5C 457.579,109.93 457.246,111.264 456.5,112.5C 452.893,113.489 449.226,113.823 445.5,113.5C 449.104,102.354 453.104,91.3539 457.5,80.5 Z M 462.5,91.5 C 464.486,93.9248 465.819,96.7581 466.5,100C 464.421,100.808 462.421,100.641 460.5,99.5C 461.785,96.9795 462.452,94.3128 462.5,91.5 Z"/></g>
<g><path style="opacity:0.935" fill="#449283" d="M 503.5,80.5 C 511.174,80.3336 518.841,80.5003 526.5,81C 530.415,83.3221 532.415,86.8221 532.5,91.5C 531.038,101.917 525.038,105.917 514.5,103.5C 514.5,106.833 514.5,110.167 514.5,113.5C 510.833,113.5 507.167,113.5 503.5,113.5C 503.5,102.5 503.5,91.5 503.5,80.5 Z M 514.5,88.5 C 517.712,88.1058 520.046,89.2724 521.5,92C 520.046,94.7276 517.712,95.8942 514.5,95.5C 514.5,93.1667 514.5,90.8333 514.5,88.5 Z"/></g>
<g><path style="opacity:0.936" fill="#449283" d="M 539.5,80.5 C 543.167,80.5 546.833,80.5 550.5,80.5C 550.5,88.8333 550.5,97.1667 550.5,105.5C 555.833,105.5 561.167,105.5 566.5,105.5C 566.5,108.167 566.5,110.833 566.5,113.5C 557.5,113.5 548.5,113.5 539.5,113.5C 539.5,102.5 539.5,91.5 539.5,80.5 Z"/></g>
<g><path style="opacity:0.925" fill="#449283" d="M 571.5,80.5 C 575.167,80.5 578.833,80.5 582.5,80.5C 582.334,88.1739 582.5,95.8406 583,103.5C 586.142,107.352 589.142,107.352 592,103.5C 592.5,95.8406 592.666,88.1739 592.5,80.5C 596.167,80.5 599.833,80.5 603.5,80.5C 603.666,89.1731 603.5,97.8397 603,106.5C 599.796,112.853 594.629,115.519 587.5,114.5C 580.959,115.496 576.126,113.163 573,107.5C 571.586,98.5822 571.086,89.5822 571.5,80.5 Z"/></g>
<g><path style="opacity:0.917" fill="#449283" d="M 611.5,80.5 C 616.179,80.3342 620.845,80.5008 625.5,81C 627.227,86.4059 628.727,91.9059 630,97.5C 632.217,92.0174 633.717,86.3507 634.5,80.5C 639.5,80.5 644.5,80.5 649.5,80.5C 649.5,91.5 649.5,102.5 649.5,113.5C 646.5,113.5 643.5,113.5 640.5,113.5C 640.666,106.492 640.5,99.4921 640,92.5C 638.266,99.2008 636.433,105.867 634.5,112.5C 631.572,113.484 628.572,113.817 625.5,113.5C 624.32,106.778 622.82,100.111 621,93.5C 620.5,100.158 620.334,106.825 620.5,113.5C 617.5,113.5 614.5,113.5 611.5,113.5C 611.5,102.5 611.5,91.5 611.5,80.5 Z"/></g>
<g><path style="opacity:0.948" fill="#449283" d="M 657.5,80.5 C 665.84,80.3336 674.173,80.5003 682.5,81C 688.684,85.5285 689.018,90.3619 683.5,95.5C 688.253,98.5727 689.753,102.906 688,108.5C 686.457,110.378 684.624,111.878 682.5,113C 674.173,113.5 665.84,113.666 657.5,113.5C 657.5,102.5 657.5,91.5 657.5,80.5 Z M 668.5,88.5 C 671.482,88.1044 674.149,88.7711 676.5,90.5C 674.149,92.2289 671.482,92.8956 668.5,92.5C 668.5,91.1667 668.5,89.8333 668.5,88.5 Z M 668.5,100.5 C 670.857,100.337 673.19,100.503 675.5,101C 678.167,102.333 678.167,103.667 675.5,105C 673.19,105.497 670.857,105.663 668.5,105.5C 668.5,103.833 668.5,102.167 668.5,100.5 Z"/></g>
<g><path style="opacity:0.945" fill="#449283" d="M 735.5,80.5 C 739.182,80.3347 742.848,80.5014 746.5,81C 749.876,86.2532 753.376,91.4198 757,96.5C 757.499,91.1771 757.666,85.8437 757.5,80.5C 760.833,80.5 764.167,80.5 767.5,80.5C 767.5,91.5 767.5,102.5 767.5,113.5C 763.774,113.823 760.107,113.489 756.5,112.5C 752.803,107.302 749.303,101.969 746,96.5C 745.501,102.157 745.334,107.824 745.5,113.5C 742.167,113.5 738.833,113.5 735.5,113.5C 735.5,102.5 735.5,91.5 735.5,80.5 Z"/></g>
<g><path style="opacity:0.341" fill="#f1ad74" d="M 278.5,84.5 C 276.72,90.0612 274.387,95.3945 271.5,100.5C 271.167,100.5 270.833,100.5 270.5,100.5C 272.659,94.8489 275.326,89.5156 278.5,84.5 Z"/></g>
<g><path style="opacity:0.074" fill="#f9e0ca" d="M 176.5,98.5 C 184.433,100.468 192.766,101.135 201.5,100.5C 201.5,100.833 201.5,101.167 201.5,101.5C 192.833,101.5 184.167,101.5 175.5,101.5C 175.263,100.209 175.596,99.209 176.5,98.5 Z"/></g>
<g><path style="opacity:0.235" fill="#f7ceab" d="M 270.5,100.5 C 270.833,100.5 271.167,100.5 271.5,100.5C 261.659,101.167 251.659,101.833 241.5,102.5C 239.977,106.229 237.977,109.562 235.5,112.5C 236.881,108.736 238.547,105.069 240.5,101.5C 250.478,100.501 260.478,100.168 270.5,100.5 Z"/></g>
<g><path style="opacity:0.059" fill="#93c0b8" d="M 142.5,108.5 C 139.5,113.5 135.5,117.5 130.5,120.5C 134.167,116.167 138.167,112.167 142.5,108.5 Z"/></g>
<g><path style="opacity:0.31" fill="#f2b784" d="M 200.5,105.5 C 197.782,112.605 194.782,119.605 191.5,126.5C 190.761,126.631 190.094,126.464 189.5,126C 193.068,119.025 196.735,112.192 200.5,105.5 Z"/></g>
</svg>
