<?xml version="1.0" encoding="UTF-8"?>
<!DOCTYPE svg PUBLIC "-//W3C//DTD SVG 1.1//EN" "http://www.w3.org/Graphics/SVG/1.1/DTD/svg11.dtd">
<svg xmlns="http://www.w3.org/2000/svg" version="1.1" width="1131px" height="790px" style="shape-rendering:geometricPrecision; text-rendering:geometricPrecision; image-rendering:optimizeQuality; fill-rule:evenodd; clip-rule:evenodd" xmlns:xlink="http://www.w3.org/1999/xlink">
<g><path style="opacity:1" fill="#4fa362" d="M 642.5,67.5 C 636.855,66.1175 631.021,65.4508 625,65.5C 617.848,66.4429 610.681,67.1096 603.5,67.5C 614.797,63.9776 626.464,62.811 638.5,64C 640.093,64.9487 641.426,66.1154 642.5,67.5 Z"/></g>
<g><path style="opacity:1" fill="#72ae80" d="M 602.5,67.5 C 600.485,68.9238 598.152,69.5905 595.5,69.5C 597.515,68.0762 599.848,67.4095 602.5,67.5 Z"/></g>
<g><path style="opacity:0.698" fill="#67b97e" d="M 775.5,71.5 C 766.186,70.5874 756.852,70.5874 747.5,71.5C 752.413,69.9925 757.579,69.3258 763,69.5C 766.5,69.6667 770,69.8333 773.5,70C 774.416,70.2784 775.082,70.7784 775.5,71.5 Z"/></g>
<g><path style="opacity:1" fill="#76b281" d="M 732.5,73.5 C 730.898,75.0739 728.898,75.7406 726.5,75.5C 728.102,73.9261 730.102,73.2594 732.5,73.5 Z"/></g>
<g><path style="opacity:1" fill="#209a3f" d="M 642.5,67.5 C 645.036,73.8943 646.036,80.561 645.5,87.5C 645.38,90.5779 644.38,93.2446 642.5,95.5C 641.5,95.5 640.5,95.5 639.5,95.5C 639.5,96.8333 639.5,98.1667 639.5,99.5C 637.717,102.418 635.383,104.918 632.5,107C 631.552,107.483 630.552,107.649 629.5,107.5C 625.818,107.335 622.152,107.501 618.5,108C 616.569,108.902 614.903,110.069 613.5,111.5C 612.833,111.5 612.167,111.5 611.5,111.5C 607.177,111.198 603.01,111.865 599,113.5C 596.54,112.687 594.04,112.02 591.5,111.5C 590.5,111.833 589.5,112.167 588.5,112.5C 590.423,113.308 592.423,113.808 594.5,114C 594.167,114.333 593.833,114.667 593.5,115C 588.343,116.636 583.01,117.803 577.5,118.5C 577.833,119.167 578.167,119.833 578.5,120.5C 577.388,121.265 576.721,122.265 576.5,123.5C 574.712,123.215 573.045,123.548 571.5,124.5C 566.5,127.833 561.5,131.167 556.5,134.5C 555.388,135.265 554.721,136.265 554.5,137.5C 551.248,138.418 548.914,140.418 547.5,143.5C 547.167,144.5 546.5,145.167 545.5,145.5C 542.833,146.833 540.167,148.167 537.5,149.5C 537.5,150.833 537.5,152.167 537.5,153.5C 536.325,153.281 535.325,153.614 534.5,154.5C 532.205,157.797 529.538,160.797 526.5,163.5C 525.232,162.572 523.899,162.405 522.5,163C 524.824,164.825 525.157,166.991 523.5,169.5C 522.585,171.754 521.252,173.754 519.5,175.5C 518.325,175.281 517.325,175.614 516.5,176.5C 514.833,178.5 513.167,180.5 511.5,182.5C 509.577,183.308 507.577,183.808 505.5,184C 506.602,186.401 506.769,188.901 506,191.5C 503.021,195.13 500.854,199.13 499.5,203.5C 496.555,209.104 493.221,214.438 489.5,219.5C 488.5,219.5 487.5,219.5 486.5,219.5C 485.957,223.015 484.957,226.348 483.5,229.5C 476.002,243.834 468.002,257.834 459.5,271.5C 458.265,271.721 457.265,272.388 456.5,273.5C 454.917,275.99 453.917,278.657 453.5,281.5C 452.502,285.505 450.502,288.839 447.5,291.5C 445.824,290.817 445.157,289.483 445.5,287.5C 440.846,287.395 440.346,288.729 444,291.5C 444.651,293.235 444.485,294.902 443.5,296.5C 441.5,297.167 439.5,297.833 437.5,298.5C 438.415,299.328 439.081,300.328 439.5,301.5C 438.844,303.453 438.511,305.453 438.5,307.5C 436.857,307.52 435.524,306.853 434.5,305.5C 433.777,307.164 434.11,308.831 435.5,310.5C 433.095,312.642 431.762,315.309 431.5,318.5C 431.5,318.833 431.5,319.167 431.5,319.5C 428.687,320.446 427.354,322.446 427.5,325.5C 426.525,327.795 425.192,329.795 423.5,331.5C 422.5,331.5 421.5,331.5 420.5,331.5C 418.864,335.448 417.197,339.448 415.5,343.5C 414.325,343.281 413.325,343.614 412.5,344.5C 410.666,346.498 409.666,348.832 409.5,351.5C 408.5,351.5 407.5,351.5 406.5,351.5C 406.483,353.565 406.15,355.565 405.5,357.5C 401.654,363.862 397.321,369.862 392.5,375.5C 388.975,377.025 386.975,379.691 386.5,383.5C 384.394,383.679 382.728,384.679 381.5,386.5C 377.977,390.005 375.311,394.005 373.5,398.5C 371.812,401.521 369.479,403.855 366.5,405.5C 362.24,408.754 358.24,412.421 354.5,416.5C 353.675,417.386 352.675,417.719 351.5,417.5C 351.5,418.833 351.5,420.167 351.5,421.5C 343.397,428.431 335.397,435.597 327.5,443C 322.263,446.769 316.93,450.269 311.5,453.5C 307.907,454.337 305.24,456.337 303.5,459.5C 300.361,459.599 298.027,460.932 296.5,463.5C 294.853,465.326 292.853,466.66 290.5,467.5C 288.821,467.285 287.821,467.952 287.5,469.5C 285.117,471.358 282.45,472.692 279.5,473.5C 277.973,473.427 276.973,474.094 276.5,475.5C 276.167,475.5 275.833,475.5 275.5,475.5C 270.206,474.71 266.539,476.71 264.5,481.5C 264.167,481.5 263.833,481.5 263.5,481.5C 259.948,481.312 257.281,482.645 255.5,485.5C 255.167,485.5 254.833,485.5 254.5,485.5C 247.168,487.696 239.834,490.03 232.5,492.5C 231.388,493.265 230.721,494.265 230.5,495.5C 230.167,495.5 229.833,495.5 229.5,495.5C 226.918,495.025 224.918,495.692 223.5,497.5C 223.167,497.5 222.833,497.5 222.5,497.5C 218.113,497.128 214.446,498.461 211.5,501.5C 210.833,501.5 210.167,501.5 209.5,501.5C 205.116,501.174 200.783,501.508 196.5,502.5C 193.408,504.364 190.074,505.531 186.5,506C 187.056,506.383 187.389,506.883 187.5,507.5C 186.833,507.5 186.167,507.5 185.5,507.5C 182.572,507.565 179.905,508.232 177.5,509.5C 176.833,509.5 176.167,509.5 175.5,509.5C 172.302,508.964 169.635,509.631 167.5,511.5C 165.833,511.5 164.167,511.5 162.5,511.5C 159.15,511.335 155.817,511.502 152.5,512C 153.056,512.383 153.389,512.883 153.5,513.5C 145.24,514.971 136.906,515.638 128.5,515.5C 105.509,516.282 82.5087,516.615 59.5,516.5C 53.4478,516.887 48.9478,514.554 46,509.5C 44.5615,504.238 44.2282,498.904 45,493.5C 45.3874,490.401 46.5541,487.734 48.5,485.5C 50.7373,484.551 53.0706,483.884 55.5,483.5C 55.4326,482.041 55.7659,480.708 56.5,479.5C 77.4651,479.355 98.4651,479.188 119.5,479C 132.853,477.943 146.186,476.776 159.5,475.5C 165.343,476.169 170.676,475.169 175.5,472.5C 176.919,471.549 178.585,471.216 180.5,471.5C 186.211,472.231 191.211,470.898 195.5,467.5C 195.833,467.5 196.167,467.5 196.5,467.5C 200.958,467.857 204.624,466.524 207.5,463.5C 207.833,463.5 208.167,463.5 208.5,463.5C 210.898,463.741 212.898,463.074 214.5,461.5C 243.577,450.297 270.244,434.963 294.5,415.5C 296.558,414.067 298.892,413.4 301.5,413.5C 301.147,411.365 301.98,410.032 304,409.5C 306.994,411.541 310.161,411.875 313.5,410.5C 311.266,408.619 309.933,406.285 309.5,403.5C 312.325,403.162 314.492,404.162 316,406.5C 316.402,405.128 316.902,403.795 317.5,402.5C 315.249,400.47 314.916,398.136 316.5,395.5C 320.167,391.167 324.167,387.167 328.5,383.5C 332.29,384.047 334.29,382.38 334.5,378.5C 336.045,377.548 337.712,377.215 339.5,377.5C 339.5,376.167 339.5,374.833 339.5,373.5C 340.833,373.5 342.167,373.5 343.5,373.5C 343.401,370.763 343.735,368.096 344.5,365.5C 368.309,335.214 390.642,303.881 411.5,271.5C 413.916,270.032 416.583,269.365 419.5,269.5C 419.643,267.738 419.309,266.071 418.5,264.5C 421.193,260.427 423.193,256.094 424.5,251.5C 426.806,247.517 429.139,243.517 431.5,239.5C 433.833,238.167 436.167,236.833 438.5,235.5C 438.5,234.167 438.5,232.833 438.5,231.5C 440.973,231.736 442.64,233.069 443.5,235.5C 445.927,232.607 445.927,229.607 443.5,226.5C 444.899,223.371 446.565,220.371 448.5,217.5C 449.593,219.349 450.926,221.016 452.5,222.5C 453.5,223.833 454.5,223.833 455.5,222.5C 452.801,220.102 451.467,217.102 451.5,213.5C 455.95,214.899 456.617,213.565 453.5,209.5C 454.917,206.123 456.251,202.789 457.5,199.5C 459.142,197.919 461.142,197.253 463.5,197.5C 463.248,194.68 463.748,192.014 465,189.5C 465.308,190.308 465.808,190.975 466.5,191.5C 467.29,188.075 468.29,184.742 469.5,181.5C 469.845,178.802 471.178,176.802 473.5,175.5C 476.495,172.856 478.495,169.523 479.5,165.5C 490.288,147.711 503.288,131.711 518.5,117.5C 520.591,116.135 522.924,115.468 525.5,115.5C 526.748,111.393 529.081,107.893 532.5,105C 532.272,104.601 531.938,104.435 531.5,104.5C 549.955,87.605 571.289,75.9383 595.5,69.5C 598.152,69.5905 600.485,68.9238 602.5,67.5C 602.833,67.5 603.167,67.5 603.5,67.5C 610.681,67.1096 617.848,66.4429 625,65.5C 631.021,65.4508 636.855,66.1175 642.5,67.5 Z"/></g>
<g><path style="opacity:1" fill="#72b688" d="M 724.5,75.5 C 723.01,77.2798 721.01,77.9465 718.5,77.5C 720.102,75.9261 722.102,75.2594 724.5,75.5 Z"/></g>
<g><path style="opacity:1" fill="#62ac79" d="M 718.5,77.5 C 716.898,79.0739 714.898,79.7406 712.5,79.5C 714.102,77.9261 716.102,77.2594 718.5,77.5 Z"/></g>
<g><path style="opacity:1" fill="#61ac74" d="M 642.5,67.5 C 645.012,69.4784 646.512,72.1451 647,75.5C 647.798,79.7809 647.298,83.7809 645.5,87.5C 646.036,80.561 645.036,73.8943 642.5,67.5 Z"/></g>
<g><path style="opacity:1" fill="#42a359" d="M 879.5,85.5 C 885.554,85.8768 891.554,86.7101 897.5,88C 899.584,88.6972 901.251,89.8639 902.5,91.5C 894.967,89.7956 887.3,89.1289 879.5,89.5C 879.5,88.1667 879.5,86.8333 879.5,85.5 Z"/></g>
<g><path style="opacity:1" fill="#4ba562" d="M 840.5,87.5 C 840.611,88.1174 840.944,88.6174 841.5,89C 839.187,91.4955 836.52,91.9955 833.5,90.5C 828.398,92.7992 823.065,94.4659 817.5,95.5C 819.121,93.8828 821.121,92.7162 823.5,92C 829.051,90.0291 834.718,88.5291 840.5,87.5 Z"/></g>
<g><path style="opacity:1" fill="#1f9a3f" d="M 879.5,85.5 C 879.5,86.8333 879.5,88.1667 879.5,89.5C 887.3,89.1289 894.967,89.7956 902.5,91.5C 904.453,92.6258 905.953,94.2925 907,96.5C 908.534,101.27 908.534,105.936 907,110.5C 904.971,113.596 902.138,115.262 898.5,115.5C 893.547,115.123 888.881,115.789 884.5,117.5C 882.833,117.5 881.167,117.5 879.5,117.5C 873.141,117.807 866.807,118.473 860.5,119.5C 856.9,119.28 853.4,118.613 850,117.5C 849.167,117.833 848.333,118.167 847.5,118.5C 849.401,119.545 851.067,120.878 852.5,122.5C 850.112,123.554 848.445,125.221 847.5,127.5C 847.167,127.5 846.833,127.5 846.5,127.5C 841.886,128.302 837.552,129.969 833.5,132.5C 832.388,133.265 831.721,134.265 831.5,135.5C 831.027,136.906 830.027,137.573 828.5,137.5C 827.022,137.238 825.689,137.571 824.5,138.5C 820.482,141.193 816.482,143.859 812.5,146.5C 811.754,147.736 811.421,149.07 811.5,150.5C 810.205,151.488 808.872,152.488 807.5,153.5C 805.5,154.167 803.5,154.833 801.5,155.5C 801.5,156.833 801.5,158.167 801.5,159.5C 800.167,159.5 799.5,160.167 799.5,161.5C 796.573,163.739 793.239,165.072 789.5,165.5C 789.5,167.5 789.5,169.5 789.5,171.5C 788.5,173.167 787.167,174.5 785.5,175.5C 783.071,176.265 781.738,177.931 781.5,180.5C 774.851,189.81 767.851,198.81 760.5,207.5C 756.696,209.766 754.362,213.099 753.5,217.5C 751.787,218.305 750.121,219.305 748.5,220.5C 746.753,224.211 745.086,227.877 743.5,231.5C 741.718,232.72 739.718,233.386 737.5,233.5C 737.797,236.724 737.13,239.724 735.5,242.5C 734.675,243.386 733.675,243.719 732.5,243.5C 731.709,247.734 730.375,251.734 728.5,255.5C 726.957,260.024 724.623,264.024 721.5,267.5C 716.839,266.832 714.839,268.832 715.5,273.5C 714.5,273.5 713.5,273.5 712.5,273.5C 712.953,276.652 711.953,279.152 709.5,281C 709.986,283.027 709.986,285.193 709.5,287.5C 708.624,287.369 707.957,287.702 707.5,288.5C 705.636,291.332 704.303,294.332 703.5,297.5C 700.64,298.853 698.974,301.187 698.5,304.5C 696.956,305.622 695.623,305.289 694.5,303.5C 693.5,304.5 692.5,305.5 691.5,306.5C 693.173,308.523 693.84,310.856 693.5,313.5C 692.5,313.5 691.5,313.5 690.5,313.5C 690.5,315.833 690.5,318.167 690.5,320.5C 688.251,326.005 685.251,331.005 681.5,335.5C 679.926,335.937 678.759,336.937 678,338.5C 677.683,336.699 677.016,336.366 676,337.5C 677.421,341.467 676.255,344.467 672.5,346.5C 673.246,347.736 673.579,349.07 673.5,350.5C 672.404,353.032 671.071,355.365 669.5,357.5C 668.265,357.721 667.265,358.388 666.5,359.5C 664.917,361.99 663.917,364.657 663.5,367.5C 661.481,368.566 659.481,369.732 657.5,371C 658.554,372.388 658.72,373.888 658,375.5C 656.763,377.104 655.597,378.771 654.5,380.5C 653.575,381.641 652.741,381.641 652,380.5C 652.012,383.651 651.012,386.318 649,388.5C 648.167,387.5 647.333,386.5 646.5,385.5C 646.167,386.167 645.833,386.833 645.5,387.5C 646.167,388.833 646.833,390.167 647.5,391.5C 646.238,394.022 645.571,396.689 645.5,399.5C 645.34,401.153 644.674,402.486 643.5,403.5C 641.395,404.987 639.728,406.987 638.5,409.5C 637.833,409.167 637.167,408.833 636.5,408.5C 635.461,412.105 634.795,415.772 634.5,419.5C 621.334,443.17 607.668,466.503 593.5,489.5C 590.661,490.321 588.328,491.987 586.5,494.5C 586.833,495.167 587.167,495.833 587.5,496.5C 586.372,497.262 585.205,497.929 584,498.5C 583.751,497.376 583.251,496.376 582.5,495.5C 575.493,499.139 574.16,504.139 578.5,510.5C 576.666,512.498 575.666,514.832 575.5,517.5C 574.66,519.853 573.326,521.853 571.5,523.5C 570.5,523.5 569.5,523.5 568.5,523.5C 566.804,529.217 563.804,534.217 559.5,538.5C 558.691,540.071 558.357,541.738 558.5,543.5C 556.134,546.857 553.801,550.19 551.5,553.5C 548.856,553.84 546.523,553.173 544.5,551.5C 544.167,552 543.833,552.5 543.5,553C 546.444,557.805 545.111,561.138 539.5,563C 539.957,563.414 540.291,563.914 540.5,564.5C 539.721,566.773 538.388,568.606 536.5,570C 535.852,571.44 535.519,572.94 535.5,574.5C 535.5,575.167 535.167,575.5 534.5,575.5C 530.975,577.539 528.642,580.539 527.5,584.5C 526.214,587.117 524.547,589.45 522.5,591.5C 519.182,593.174 516.182,595.174 513.5,597.5C 513.5,598.833 513.5,600.167 513.5,601.5C 511.396,601.201 509.396,601.534 507.5,602.5C 506.025,605.341 504.859,608.341 504,611.5C 502.983,608.972 501.816,608.972 500.5,611.5C 499.49,614.183 498.49,616.849 497.5,619.5C 496.878,621.122 495.878,622.455 494.5,623.5C 489.299,626.688 484.632,630.688 480.5,635.5C 479.614,636.325 479.281,637.325 479.5,638.5C 477.431,641.573 474.764,643.906 471.5,645.5C 467.882,647.761 464.215,650.094 460.5,652.5C 461.609,654.214 460.942,654.881 458.5,654.5C 458.5,655.5 458.5,656.5 458.5,657.5C 457.022,657.238 455.689,657.571 454.5,658.5C 450.108,661.899 446.108,665.565 442.5,669.5C 438.907,670.337 436.24,672.337 434.5,675.5C 432.712,675.215 431.045,675.548 429.5,676.5C 425.194,680.204 420.528,683.37 415.5,686C 416.056,686.383 416.389,686.883 416.5,687.5C 414.117,689.358 411.45,690.692 408.5,691.5C 404.56,691.965 400.893,693.298 397.5,695.5C 394.517,692.585 392.017,692.918 390,696.5C 389.383,697.449 389.549,698.282 390.5,699C 389.244,699.417 388.577,700.25 388.5,701.5C 387.18,702.942 385.514,703.608 383.5,703.5C 379.173,703.502 375.507,704.835 372.5,707.5C 371.22,708.931 369.553,709.598 367.5,709.5C 365.076,709.192 362.743,709.526 360.5,710.5C 358.025,710.964 356.025,711.964 354.5,713.5C 348.132,713.17 341.798,713.504 335.5,714.5C 333.722,715.726 332.722,717.393 332.5,719.5C 326.93,720.897 321.264,721.563 315.5,721.5C 311.029,720.911 307.029,721.577 303.5,723.5C 301.833,723.5 300.167,723.5 298.5,723.5C 278.822,723.833 259.155,723.5 239.5,722.5C 235.399,721.701 231.399,720.701 227.5,719.5C 227.167,719.5 226.833,719.5 226.5,719.5C 225.222,711.829 225.222,704.163 226.5,696.5C 229.43,690.196 234.43,687.196 241.5,687.5C 246.179,687.666 250.845,687.499 255.5,687C 257.058,686.79 258.391,686.29 259.5,685.5C 273.182,684.287 286.849,682.953 300.5,681.5C 303.495,681.706 306.162,681.04 308.5,679.5C 309.5,679.5 310.5,679.5 311.5,679.5C 318.145,680.172 324.478,679.172 330.5,676.5C 334.459,675.673 338.459,675.173 342.5,675C 343.337,673.989 343.67,672.822 343.5,671.5C 343.833,671.5 344.167,671.5 344.5,671.5C 351.393,670.103 358.393,669.103 365.5,668.5C 364.5,667.833 363.5,667.167 362.5,666.5C 364.332,665.943 365.665,664.943 366.5,663.5C 372.206,660.316 378.206,657.65 384.5,655.5C 387.923,655.876 390.256,654.543 391.5,651.5C 420.697,634.162 446.863,612.828 470,587.5C 482.082,572.986 493.915,558.319 505.5,543.5C 506.833,543.5 508.167,543.5 509.5,543.5C 509.555,539.61 511.555,537.443 515.5,537C 518.931,531.6 521.597,525.767 523.5,519.5C 528.34,511.148 533.673,503.148 539.5,495.5C 541.557,493.118 544.057,491.118 547,489.5C 548.143,486.223 548.977,482.89 549.5,479.5C 562.514,458.131 575.514,436.797 588.5,415.5C 590.269,413.722 592.269,412.055 594.5,410.5C 595.05,407.227 596.717,404.727 599.5,403C 598.978,402.439 598.645,401.772 598.5,401C 600.273,398.41 601.273,395.577 601.5,392.5C 602.726,388.38 604.726,384.713 607.5,381.5C 610.948,379.143 612.948,375.81 613.5,371.5C 614.5,371.5 615.5,371.5 616.5,371.5C 618.576,367.05 620.243,362.384 621.5,357.5C 624.995,349.839 628.995,342.505 633.5,335.5C 636.495,332.856 638.495,329.523 639.5,325.5C 656.492,293.506 674.492,262.173 693.5,231.5C 694.482,230.859 695.482,230.193 696.5,229.5C 697.466,231.396 697.799,233.396 697.5,235.5C 698.5,235.5 699.5,235.5 700.5,235.5C 700.511,233.453 700.844,231.453 701.5,229.5C 700.833,228.167 700.167,226.833 699.5,225.5C 701.951,222.6 703.285,219.266 703.5,215.5C 704.815,214.524 706.148,213.524 707.5,212.5C 708.606,209.274 710.439,206.607 713,204.5C 713.847,202.146 714.68,199.812 715.5,197.5C 717.673,193.148 720.34,189.148 723.5,185.5C 725.115,183.626 727.115,182.292 729.5,181.5C 729.5,183.5 729.5,185.5 729.5,187.5C 730.833,187.5 732.167,187.5 733.5,187.5C 733.5,186.167 733.5,184.833 733.5,183.5C 732.325,183.719 731.325,183.386 730.5,182.5C 731.137,177.273 732.803,172.606 735.5,168.5C 740.06,160.607 745.726,153.607 752.5,147.5C 755.893,145.773 758.226,143.106 759.5,139.5C 771.127,125.704 784.461,113.87 799.5,104C 805.139,100.346 811.139,97.5131 817.5,95.5C 823.065,94.4659 828.398,92.7992 833.5,90.5C 836.52,91.9955 839.187,91.4955 841.5,89C 840.944,88.6174 840.611,88.1174 840.5,87.5C 853.372,84.5945 866.372,83.9278 879.5,85.5 Z"/></g>
<g><path style="opacity:1" fill="#68ac7d" d="M 642.5,95.5 C 641.974,97.2303 640.974,98.5637 639.5,99.5C 639.5,98.1667 639.5,96.8333 639.5,95.5C 640.5,95.5 641.5,95.5 642.5,95.5 Z"/></g>
<g><path style="opacity:0.729" fill="#60b376" d="M 773.5,101.5 C 771.141,105.017 767.808,107.017 763.5,107.5C 766.376,104.921 769.709,102.921 773.5,101.5 Z"/></g>
<g><path style="opacity:1" fill="#51a765" d="M 629.5,107.5 C 624.664,110.376 619.331,111.709 613.5,111.5C 614.903,110.069 616.569,108.902 618.5,108C 622.152,107.501 625.818,107.335 629.5,107.5 Z"/></g>
<g><path style="opacity:1" fill="#59aa6b" d="M 763.5,107.5 C 757.042,109.192 750.375,110.526 743.5,111.5C 744.903,110.069 746.569,108.902 748.5,108C 753.489,107.501 758.489,107.334 763.5,107.5 Z"/></g>
<g><path style="opacity:1" fill="#469f5e" d="M 531.5,104.5 C 531.938,104.435 532.272,104.601 532.5,105C 529.081,107.893 526.748,111.393 525.5,115.5C 522.924,115.468 520.591,116.135 518.5,117.5C 518.369,116.761 518.536,116.094 519,115.5C 523.335,111.997 527.501,108.33 531.5,104.5 Z"/></g>
<g><path style="opacity:0.078" fill="#92bfa2" d="M 741.5,111.5 C 739.786,112.738 737.786,113.405 735.5,113.5C 736.918,111.692 738.918,111.025 741.5,111.5 Z"/></g>
<g><path style="opacity:1" fill="#7bb389" d="M 898.5,115.5 C 894.057,116.801 889.391,117.468 884.5,117.5C 888.881,115.789 893.547,115.123 898.5,115.5 Z"/></g>
<g><path style="opacity:1" fill="#46a45a" d="M 611.5,111.5 C 599.547,114.642 587.881,118.642 576.5,123.5C 576.721,122.265 577.388,121.265 578.5,120.5C 578.167,119.833 577.833,119.167 577.5,118.5C 583.01,117.803 588.343,116.636 593.5,115C 593.833,114.667 594.167,114.333 594.5,114C 592.423,113.808 590.423,113.308 588.5,112.5C 589.5,112.167 590.5,111.833 591.5,111.5C 594.04,112.02 596.54,112.687 599,113.5C 603.01,111.865 607.177,111.198 611.5,111.5 Z"/></g>
<g><path style="opacity:1" fill="#43a259" d="M 879.5,117.5 C 868.557,119.697 857.891,123.03 847.5,127.5C 848.445,125.221 850.112,123.554 852.5,122.5C 851.067,120.878 849.401,119.545 847.5,118.5C 848.333,118.167 849.167,117.833 850,117.5C 853.4,118.613 856.9,119.28 860.5,119.5C 866.807,118.473 873.141,117.807 879.5,117.5 Z"/></g>
<g><path style="opacity:0.004" fill="#bbeecd" d="M 714.5,121.5 C 714.027,122.906 713.027,123.573 711.5,123.5C 711.973,122.094 712.973,121.427 714.5,121.5 Z"/></g>
<g><path style="opacity:0.863" fill="#5ca96f" d="M 576.5,123.5 C 569.208,128.151 561.874,132.818 554.5,137.5C 554.721,136.265 555.388,135.265 556.5,134.5C 561.5,131.167 566.5,127.833 571.5,124.5C 573.045,123.548 574.712,123.215 576.5,123.5 Z"/></g>
<g><path style="opacity:0.902" fill="#5bac6c" d="M 697.5,131.5 C 692.524,135.47 687.524,139.47 682.5,143.5C 682.5,142.167 682.5,140.833 682.5,139.5C 686.617,137.979 690.283,135.646 693.5,132.5C 694.689,131.571 696.022,131.238 697.5,131.5 Z"/></g>
<g><path style="opacity:0.914" fill="#63b074" d="M 846.5,127.5 C 841.635,130.432 836.635,133.099 831.5,135.5C 831.721,134.265 832.388,133.265 833.5,132.5C 837.552,129.969 841.886,128.302 846.5,127.5 Z"/></g>
<g><path style="opacity:0.902" fill="#5aae6f" d="M 554.5,137.5 C 552.807,140.19 550.473,142.19 547.5,143.5C 548.914,140.418 551.248,138.418 554.5,137.5 Z"/></g>
<g><path style="opacity:1" fill="#5aac6c" d="M 828.5,137.5 C 822.692,141.579 817.025,145.913 811.5,150.5C 811.421,149.07 811.754,147.736 812.5,146.5C 816.482,143.859 820.482,141.193 824.5,138.5C 825.689,137.571 827.022,137.238 828.5,137.5 Z"/></g>
<g><path style="opacity:1" fill="#5ba46e" d="M 759.5,139.5 C 758.226,143.106 755.893,145.773 752.5,147.5C 754.094,144.236 756.427,141.569 759.5,139.5 Z"/></g>
<g><path style="opacity:0.969" fill="#4aa465" d="M 545.5,145.5 C 543.215,148.452 540.548,151.118 537.5,153.5C 537.5,152.167 537.5,150.833 537.5,149.5C 540.167,148.167 542.833,146.833 545.5,145.5 Z"/></g>
<g><path style="opacity:0.698" fill="#61ad73" d="M 681.5,143.5 C 678.833,146.833 675.833,149.833 672.5,152.5C 674.167,148.167 677.167,145.167 681.5,143.5 Z"/></g>
<g><path style="opacity:1" fill="#5cad6c" d="M 807.5,153.5 C 805.833,155.833 803.833,157.833 801.5,159.5C 801.5,158.167 801.5,156.833 801.5,155.5C 803.5,154.833 805.5,154.167 807.5,153.5 Z"/></g>
<g><path style="opacity:0.008" fill="#b5c4bc" d="M 801.5,159.5 C 801.167,160.5 800.5,161.167 799.5,161.5C 799.5,160.167 800.167,159.5 801.5,159.5 Z"/></g>
<g><path style="opacity:0.753" fill="#68b279" d="M 672.5,152.5 C 667.14,158.527 661.473,164.194 655.5,169.5C 655.539,168.417 655.873,167.417 656.5,166.5C 660.849,162.318 665.015,157.985 669,153.5C 670.011,152.663 671.178,152.33 672.5,152.5 Z"/></g>
<g><path style="opacity:1" fill="#4da762" d="M 537.5,153.5 C 533.126,159.2 528.459,164.533 523.5,169.5C 525.157,166.991 524.824,164.825 522.5,163C 523.899,162.405 525.232,162.572 526.5,163.5C 529.538,160.797 532.205,157.797 534.5,154.5C 535.325,153.614 536.325,153.281 537.5,153.5 Z"/></g>
<g><path style="opacity:1" fill="#50a85e" d="M 799.5,161.5 C 796.5,165.167 793.167,168.5 789.5,171.5C 789.5,169.5 789.5,167.5 789.5,165.5C 793.239,165.072 796.573,163.739 799.5,161.5 Z"/></g>
<g><path style="opacity:1" fill="#52a66a" d="M 607.5,166.5 C 605.833,170.833 604.167,175.167 602.5,179.5C 601.5,179.5 600.5,179.5 599.5,179.5C 601.418,174.657 604.084,170.323 607.5,166.5 Z"/></g>
<g><path style="opacity:0.765" fill="#58a76f" d="M 479.5,165.5 C 478.495,169.523 476.495,172.856 473.5,175.5C 475,171.827 477,168.494 479.5,165.5 Z"/></g>
<g><path style="opacity:0.808" fill="#63a572" d="M 785.5,175.5 C 784.92,177.749 783.587,179.415 781.5,180.5C 781.738,177.931 783.071,176.265 785.5,175.5 Z"/></g>
<g><path style="opacity:1" fill="#3b9e51" d="M 735.5,168.5 C 732.803,172.606 731.137,177.273 730.5,182.5C 731.325,183.386 732.325,183.719 733.5,183.5C 733.5,184.833 733.5,186.167 733.5,187.5C 732.167,187.5 730.833,187.5 729.5,187.5C 729.5,185.5 729.5,183.5 729.5,181.5C 727.115,182.292 725.115,183.626 723.5,185.5C 727.118,179.551 731.118,173.884 735.5,168.5 Z"/></g>
<g><path style="opacity:1" fill="#47a55d" d="M 519.5,175.5 C 512.413,184.578 505.746,193.912 499.5,203.5C 500.854,199.13 503.021,195.13 506,191.5C 506.769,188.901 506.602,186.401 505.5,184C 507.577,183.808 509.577,183.308 511.5,182.5C 513.167,180.5 514.833,178.5 516.5,176.5C 517.325,175.614 518.325,175.281 519.5,175.5 Z"/></g>
<g><path style="opacity:1" fill="#48a45d" d="M 469.5,181.5 C 468.29,184.742 467.29,188.075 466.5,191.5C 465.808,190.975 465.308,190.308 465,189.5C 463.748,192.014 463.248,194.68 463.5,197.5C 461.142,197.253 459.142,197.919 457.5,199.5C 461.007,193.148 465.007,187.148 469.5,181.5 Z"/></g>
<g><path style="opacity:1" fill="#59ad71" d="M 633.5,197.5 C 631.656,201.192 629.323,204.525 626.5,207.5C 627.362,203.099 629.696,199.766 633.5,197.5 Z"/></g>
<g><path style="opacity:1" fill="#55a666" d="M 715.5,197.5 C 714.68,199.812 713.847,202.146 713,204.5C 710.439,206.607 708.606,209.274 707.5,212.5C 706.148,213.524 704.815,214.524 703.5,215.5C 707.007,209.148 711.007,203.148 715.5,197.5 Z"/></g>
<g><path style="opacity:0.863" fill="#56a96a" d="M 760.5,207.5 C 758.656,211.192 756.323,214.525 753.5,217.5C 754.362,213.099 756.696,209.766 760.5,207.5 Z"/></g>
<g><path style="opacity:1" fill="#399d53" d="M 579.5,211.5 C 579.82,214.898 579.487,218.232 578.5,221.5C 577.833,220.833 577.167,220.167 576.5,219.5C 574.02,222.361 573.02,225.694 573.5,229.5C 571.282,229.614 569.282,230.28 567.5,231.5C 571,224.494 575,217.827 579.5,211.5 Z"/></g>
<g><path style="opacity:0.878" fill="#5aa96e" d="M 489.5,219.5 C 488,223.173 486,226.506 483.5,229.5C 484.957,226.348 485.957,223.015 486.5,219.5C 487.5,219.5 488.5,219.5 489.5,219.5 Z"/></g>
<g><path style="opacity:1" fill="#54a968" d="M 619.5,217.5 C 616.664,223.178 613.331,228.511 609.5,233.5C 611.576,229.05 613.243,224.384 614.5,219.5C 616.322,219.169 617.989,218.502 619.5,217.5 Z"/></g>
<g><path style="opacity:1" fill="#59ae6d" d="M 753.5,217.5 C 751.127,222.937 747.793,227.604 743.5,231.5C 745.086,227.877 746.753,224.211 748.5,220.5C 750.121,219.305 751.787,218.305 753.5,217.5 Z"/></g>
<g><path style="opacity:1" fill="#3a9e51" d="M 703.5,215.5 C 703.285,219.266 701.951,222.6 699.5,225.5C 700.167,226.833 700.833,228.167 701.5,229.5C 700.844,231.453 700.511,233.453 700.5,235.5C 699.5,235.5 698.5,235.5 697.5,235.5C 697.799,233.396 697.466,231.396 696.5,229.5C 695.482,230.193 694.482,230.859 693.5,231.5C 696.336,225.822 699.669,220.489 703.5,215.5 Z"/></g>
<g><path style="opacity:1" fill="#359c4d" d="M 457.5,199.5 C 456.251,202.789 454.917,206.123 453.5,209.5C 456.617,213.565 455.95,214.899 451.5,213.5C 451.467,217.102 452.801,220.102 455.5,222.5C 454.5,223.833 453.5,223.833 452.5,222.5C 450.926,221.016 449.593,219.349 448.5,217.5C 446.565,220.371 444.899,223.371 443.5,226.5C 445.927,229.607 445.927,232.607 443.5,235.5C 442.64,233.069 440.973,231.736 438.5,231.5C 438.5,232.833 438.5,234.167 438.5,235.5C 436.167,236.833 433.833,238.167 431.5,239.5C 439.807,225.874 448.473,212.541 457.5,199.5 Z"/></g>
<g><path style="opacity:1" fill="#4ba762" d="M 743.5,231.5 C 739.498,240.181 734.498,248.181 728.5,255.5C 730.375,251.734 731.709,247.734 732.5,243.5C 733.675,243.719 734.675,243.386 735.5,242.5C 737.13,239.724 737.797,236.724 737.5,233.5C 739.718,233.386 741.718,232.72 743.5,231.5 Z"/></g>
<g><path style="opacity:1" fill="#449d5a" d="M 563.5,238.5 C 563.682,240.591 563.348,242.591 562.5,244.5C 560.071,246.929 557.737,249.263 555.5,251.5C 557.919,246.991 560.586,242.658 563.5,238.5 Z"/></g>
<g><path style="opacity:1" fill="#40a256" d="M 606.5,237.5 C 599.333,250.507 591.666,263.174 583.5,275.5C 585.352,270.132 588.019,265.132 591.5,260.5C 589.076,258.286 589.743,257.286 593.5,257.5C 593.693,253.987 593.026,250.654 591.5,247.5C 591.833,246.833 592.167,246.167 592.5,245.5C 593.429,246.689 593.762,248.022 593.5,249.5C 595.143,249.52 596.476,248.853 597.5,247.5C 598.333,245.5 599.167,243.5 600,241.5C 600.308,242.308 600.808,242.975 601.5,243.5C 602.466,241.604 602.799,239.604 602.5,237.5C 603.833,237.5 605.167,237.5 606.5,237.5 Z"/></g>
<g><path style="opacity:1" fill="#1f9a3f" d="M 775.5,71.5 C 780.468,74.0158 782.801,78.1825 782.5,84C 781.956,91.2577 778.956,97.091 773.5,101.5C 769.709,102.921 766.376,104.921 763.5,107.5C 758.489,107.334 753.489,107.501 748.5,108C 746.569,108.902 744.903,110.069 743.5,111.5C 742.833,111.5 742.167,111.5 741.5,111.5C 738.918,111.025 736.918,111.692 735.5,113.5C 728.321,115.78 721.321,118.447 714.5,121.5C 712.973,121.427 711.973,122.094 711.5,123.5C 706.806,126.179 702.139,128.845 697.5,131.5C 696.022,131.238 694.689,131.571 693.5,132.5C 690.283,135.646 686.617,137.979 682.5,139.5C 682.5,140.833 682.5,142.167 682.5,143.5C 682.167,143.5 681.833,143.5 681.5,143.5C 677.167,145.167 674.167,148.167 672.5,152.5C 671.178,152.33 670.011,152.663 669,153.5C 665.015,157.985 660.849,162.318 656.5,166.5C 655.873,167.417 655.539,168.417 655.5,169.5C 648.541,179.126 641.208,188.459 633.5,197.5C 629.696,199.766 627.362,203.099 626.5,207.5C 624.656,211.192 622.323,214.525 619.5,217.5C 617.989,218.502 616.322,219.169 614.5,219.5C 613.243,224.384 611.576,229.05 609.5,233.5C 609.262,235.404 608.262,236.738 606.5,237.5C 605.167,237.5 603.833,237.5 602.5,237.5C 602.799,239.604 602.466,241.604 601.5,243.5C 600.808,242.975 600.308,242.308 600,241.5C 599.167,243.5 598.333,245.5 597.5,247.5C 596.476,248.853 595.143,249.52 593.5,249.5C 593.762,248.022 593.429,246.689 592.5,245.5C 592.167,246.167 591.833,246.833 591.5,247.5C 593.026,250.654 593.693,253.987 593.5,257.5C 589.743,257.286 589.076,258.286 591.5,260.5C 588.019,265.132 585.352,270.132 583.5,275.5C 583.34,277.153 582.674,278.486 581.5,279.5C 577.837,280.845 576.17,283.512 576.5,287.5C 576.008,289.819 575.008,291.819 573.5,293.5C 571.134,295.509 568.468,297.176 565.5,298.5C 566.357,301.451 566.357,304.451 565.5,307.5C 561.197,315.782 556.53,323.782 551.5,331.5C 550.5,331.5 549.5,331.5 548.5,331.5C 547.043,334.652 546.043,337.985 545.5,341.5C 545.34,343.153 544.674,344.486 543.5,345.5C 542.5,345.5 541.5,345.5 540.5,345.5C 540.5,347.167 540.5,348.833 540.5,350.5C 539.737,352.368 538.737,354.035 537.5,355.5C 535.068,357.747 532.235,359.414 529,360.5C 530.009,363.974 529.509,367.307 527.5,370.5C 526.624,371.251 525.624,371.751 524.5,372C 525.337,373.011 525.67,374.178 525.5,375.5C 525.34,377.153 524.674,378.486 523.5,379.5C 522.5,379.5 521.5,379.5 520.5,379.5C 519.833,382.167 519.167,384.833 518.5,387.5C 517.167,387.5 515.833,387.5 514.5,387.5C 513.5,391.5 512.5,395.5 511.5,399.5C 508.562,405.099 505.229,410.433 501.5,415.5C 499.21,416.456 497.544,418.123 496.5,420.5C 495.675,421.386 494.675,421.719 493.5,421.5C 493.479,417.128 491.479,415.462 487.5,416.5C 489.648,417.977 490.982,419.977 491.5,422.5C 490.53,425.437 489.863,428.437 489.5,431.5C 486.795,431.38 486.128,432.38 487.5,434.5C 485.429,435.976 484.429,437.976 484.5,440.5C 484.5,440.833 484.5,441.167 484.5,441.5C 481.043,441.96 479.377,443.96 479.5,447.5C 479.267,449.062 478.6,450.395 477.5,451.5C 474.53,451.746 473.197,453.412 473.5,456.5C 473.5,457.167 473.167,457.5 472.5,457.5C 469.543,459.124 467.209,461.457 465.5,464.5C 464.253,466.323 463.586,468.323 463.5,470.5C 463.5,471.167 463.167,471.5 462.5,471.5C 456.02,476.649 451.02,482.982 447.5,490.5C 447.5,491.167 447.167,491.5 446.5,491.5C 445.325,491.281 444.325,491.614 443.5,492.5C 441.218,496.718 438.218,500.384 434.5,503.5C 433.571,504.689 433.238,506.022 433.5,507.5C 430.479,511.188 427.146,514.521 423.5,517.5C 419.76,519.572 417.093,522.572 415.5,526.5C 415.5,527.167 415.167,527.5 414.5,527.5C 409.634,530.352 405.3,534.019 401.5,538.5C 400.675,539.386 399.675,539.719 398.5,539.5C 398.5,540.833 398.5,542.167 398.5,543.5C 398.167,543.5 397.833,543.5 397.5,543.5C 394.248,544.418 391.914,546.418 390.5,549.5C 387.248,550.418 384.914,552.418 383.5,555.5C 382.325,555.281 381.325,555.614 380.5,556.5C 377.676,558.472 375.342,560.806 373.5,563.5C 370.931,563.738 369.265,565.071 368.5,567.5C 366.853,569.326 364.853,570.66 362.5,571.5C 357.916,572.998 354.25,575.664 351.5,579.5C 350.486,580.674 349.153,581.34 347.5,581.5C 342.684,583.808 337.684,585.808 332.5,587.5C 332.567,588.959 332.234,590.292 331.5,591.5C 331.167,591.5 330.833,591.5 330.5,591.5C 326.028,592.232 322.362,594.232 319.5,597.5C 315.777,597.534 312.777,598.867 310.5,601.5C 306.732,601.81 303.065,602.643 299.5,604C 299.833,604.333 300.167,604.667 300.5,605C 298.881,605.236 297.881,606.069 297.5,607.5C 293.612,609.139 289.612,610.473 285.5,611.5C 280.428,612.017 275.428,613.017 270.5,614.5C 268.668,615.057 267.335,616.057 266.5,617.5C 266.167,617.5 265.833,617.5 265.5,617.5C 262.102,617.18 258.768,617.513 255.5,618.5C 253.345,619.001 251.678,620.001 250.5,621.5C 245.939,622.811 241.272,623.478 236.5,623.5C 232.154,623.334 227.821,623.501 223.5,624C 224.737,624.232 225.737,624.732 226.5,625.5C 225.167,625.5 223.833,625.5 222.5,625.5C 217.056,624.892 212.056,625.558 207.5,627.5C 190.163,627.667 172.83,627.5 155.5,627C 152.146,626.545 148.813,626.045 145.5,625.5C 141.081,624.028 136.414,623.362 131.5,623.5C 130.167,623.5 128.833,623.5 127.5,623.5C 125.365,621.631 122.698,620.964 119.5,621.5C 118.5,621.5 117.5,621.5 116.5,621.5C 116.5,621.167 116.5,620.833 116.5,620.5C 118.58,618.953 120.913,617.619 123.5,616.5C 118.961,614.984 114.628,615.317 110.5,617.5C 108.221,616.263 106.055,614.93 104,613.5C 103.173,609.459 103.34,605.459 104.5,601.5C 105.738,599.363 107.571,598.029 110,597.5C 111.496,595.55 111.663,593.55 110.5,591.5C 108.221,592.684 106.888,594.684 106.5,597.5C 106.167,596.5 105.833,595.5 105.5,594.5C 107.396,591.37 109.396,588.37 111.5,585.5C 111.833,585.5 112.167,585.5 112.5,585.5C 119.167,585.5 125.833,585.5 132.5,585.5C 133.5,585.5 134.5,585.5 135.5,585.5C 144.615,587.035 153.948,587.702 163.5,587.5C 170.342,587.5 177.009,587.166 183.5,586.5C 195.529,585.805 207.529,584.805 219.5,583.5C 223.329,584.069 226.663,583.402 229.5,581.5C 229.833,581.5 230.167,581.5 230.5,581.5C 233.152,581.59 235.485,580.924 237.5,579.5C 238.167,579.5 238.833,579.5 239.5,579.5C 247.154,579.409 254.154,577.409 260.5,573.5C 260.833,573.5 261.167,573.5 261.5,573.5C 265.423,573.191 268.757,571.858 271.5,569.5C 271.833,569.5 272.167,569.5 272.5,569.5C 276.423,569.191 279.757,567.858 282.5,565.5C 287.737,565.132 292.07,563.132 295.5,559.5C 295.833,559.5 296.167,559.5 296.5,559.5C 303.101,559.414 308.101,556.747 311.5,551.5C 314.916,552.106 317.582,551.106 319.5,548.5C 321.045,547.548 322.712,547.215 324.5,547.5C 324.433,546.041 324.766,544.708 325.5,543.5C 330.273,543.198 334.107,541.198 337,537.5C 338,538.167 339,538.833 340,539.5C 341.713,538.863 341.879,537.863 340.5,536.5C 341.328,535.585 342.328,534.919 343.5,534.5C 345.017,535.911 346.351,535.744 347.5,534C 346.376,533.751 345.376,533.251 344.5,532.5C 347.554,530.78 349.887,528.446 351.5,525.5C 388.629,495.038 421.296,460.371 449.5,421.5C 452.488,418.903 455.488,416.236 458.5,413.5C 459.578,410.793 460.578,408.126 461.5,405.5C 463.5,405.5 465.5,405.5 467.5,405.5C 467.19,401.3 467.857,397.3 469.5,393.5C 469.845,390.802 471.178,388.802 473.5,387.5C 474.5,387.5 475.5,387.5 476.5,387.5C 476.584,384.673 477.25,382.006 478.5,379.5C 480.121,379.213 481.121,378.213 481.5,376.5C 482.689,375.571 484.022,375.238 485.5,375.5C 485.5,374.167 485.5,372.833 485.5,371.5C 486.675,371.719 487.675,371.386 488.5,370.5C 489.183,366.725 490.183,363.059 491.5,359.5C 496.335,350.491 501.668,341.824 507.5,333.5C 510.543,332.256 511.876,329.923 511.5,326.5C 514.08,320.332 517.414,314.665 521.5,309.5C 525.013,307.152 527.013,303.819 527.5,299.5C 529.513,298.525 530.846,296.858 531.5,294.5C 532.689,293.571 534.022,293.238 535.5,293.5C 534.698,288.525 536.365,284.858 540.5,282.5C 542.094,279.321 543.094,275.988 543.5,272.5C 543.5,272.167 543.5,271.833 543.5,271.5C 545.2,271.374 546.7,270.707 548,269.5C 550.098,270.878 551.932,270.544 553.5,268.5C 549.096,264.119 549.763,260.785 555.5,258.5C 554.947,256.273 554.947,253.939 555.5,251.5C 557.737,249.263 560.071,246.929 562.5,244.5C 563.348,242.591 563.682,240.591 563.5,238.5C 564.079,235.669 565.412,233.336 567.5,231.5C 569.282,230.28 571.282,229.614 573.5,229.5C 573.02,225.694 574.02,222.361 576.5,219.5C 577.167,220.167 577.833,220.833 578.5,221.5C 579.487,218.232 579.82,214.898 579.5,211.5C 583.39,204.059 587.556,196.726 592,189.5C 594.277,185.92 596.777,182.586 599.5,179.5C 600.5,179.5 601.5,179.5 602.5,179.5C 604.167,175.167 605.833,170.833 607.5,166.5C 630.644,128.184 662.644,100.018 703.5,82C 706.432,80.8551 709.432,80.0218 712.5,79.5C 714.898,79.7406 716.898,79.0739 718.5,77.5C 721.01,77.9465 723.01,77.2798 724.5,75.5C 725.167,75.5 725.833,75.5 726.5,75.5C 728.898,75.7406 730.898,75.0739 732.5,73.5C 737.387,72.0974 742.387,71.4307 747.5,71.5C 756.852,70.5874 766.186,70.5874 775.5,71.5 Z"/></g>
<g><path style="opacity:1" fill="#e4662b" d="M 1022.5,281.5 C 1020.14,283.557 1019.14,286.224 1019.5,289.5C 1017.06,298.638 1013.73,307.304 1009.5,315.5C 1008.33,316.514 1007.66,317.847 1007.5,319.5C 1007.74,321.898 1007.07,323.898 1005.5,325.5C 1001.14,322.876 1000.47,323.876 1003.5,328.5C 1003.17,328.833 1002.83,329.167 1002.5,329.5C 1001.83,328.833 1001.17,328.167 1000.5,327.5C 999.833,331.5 999.167,335.5 998.5,339.5C 997.833,338.167 997.167,336.833 996.5,335.5C 996.167,335.667 995.833,335.833 995.5,336C 995.169,339.256 995.835,342.423 997.5,345.5C 993.955,356.69 989.955,367.69 985.5,378.5C 983.896,379.287 983.229,380.62 983.5,382.5C 1014.66,383.498 1046,383.832 1077.5,383.5C 1080.29,383.622 1082.29,384.956 1083.5,387.5C 1084.05,390.807 1084.38,394.14 1084.5,397.5C 1083.34,398.611 1082.01,399.611 1080.5,400.5C 1081.31,402.071 1081.64,403.738 1081.5,405.5C 1081.5,406.167 1081.5,406.833 1081.5,407.5C 1078.29,409.074 1076.96,411.741 1077.5,415.5C 1077.74,417.898 1077.07,419.898 1075.5,421.5C 1074.5,421.5 1073.5,421.5 1072.5,421.5C 1072.66,423.527 1072.5,425.527 1072,427.5C 1070.31,429.017 1068.81,430.684 1067.5,432.5C 1068.85,433.524 1069.52,434.857 1069.5,436.5C 1066.4,446.464 1062.74,456.131 1058.5,465.5C 1057.5,466.833 1056.5,468.167 1055.5,469.5C 1054.41,469.62 1053.75,470.287 1053.5,471.5C 1052.73,474.115 1052.4,476.781 1052.5,479.5C 1051.02,479.238 1049.69,479.571 1048.5,480.5C 1049.37,482.747 1049.71,485.08 1049.5,487.5C 1048.02,487.238 1046.69,487.571 1045.5,488.5C 1047.01,491.737 1046.68,494.737 1044.5,497.5C 1043.81,496.975 1043.31,496.308 1043,495.5C 1042.83,498.157 1042.99,500.824 1043.5,503.5C 1042.74,507.137 1041.4,510.47 1039.5,513.5C 1035.21,513.153 1034.21,514.82 1036.5,518.5C 1035.47,521.514 1034.47,524.514 1033.5,527.5C 1030.86,528.623 1029.19,530.623 1028.5,533.5C 1025.45,533.183 1023.79,534.516 1023.5,537.5C 1020.99,538.75 1018.33,539.416 1015.5,539.5C 984.5,539.5 953.5,539.5 922.5,539.5C 919.637,542.061 918.304,545.394 918.5,549.5C 916.712,549.215 915.045,549.548 913.5,550.5C 915.173,552.523 915.84,554.856 915.5,557.5C 915.5,558.167 915.5,558.833 915.5,559.5C 913.553,560.473 911.553,561.473 909.5,562.5C 910.415,563.328 911.081,564.328 911.5,565.5C 910.844,567.453 910.511,569.453 910.5,571.5C 908.824,572.183 908.157,573.517 908.5,575.5C 906.712,575.215 905.045,575.548 903.5,576.5C 905.173,578.523 905.84,580.856 905.5,583.5C 904.076,589.112 902.076,594.445 899.5,599.5C 896.619,602.13 895.285,605.464 895.5,609.5C 893.585,610.579 891.585,611.579 889.5,612.5C 890.544,613.623 891.21,614.956 891.5,616.5C 891.003,618.818 890.67,621.152 890.5,623.5C 890.672,624.492 890.338,625.158 889.5,625.5C 888.5,625.5 887.5,625.5 886.5,625.5C 886.5,626.833 886.5,628.167 886.5,629.5C 885.5,629.5 884.5,629.5 883.5,629.5C 883.196,632.522 882.696,635.522 882,638.5C 881.209,640.604 879.709,641.937 877.5,642.5C 879.26,645.212 879.927,648.212 879.5,651.5C 876.932,653.081 875.599,655.414 875.5,658.5C 873.363,661.973 870.363,664.306 866.5,665.5C 864.62,665.229 863.287,665.896 862.5,667.5C 822.167,668.833 781.833,668.833 741.5,667.5C 741.167,666.5 740.5,665.833 739.5,665.5C 739.5,664.167 739.5,662.833 739.5,661.5C 740.5,661.5 741.5,661.5 742.5,661.5C 742.539,658.19 741.206,655.524 738.5,653.5C 737.571,652.311 737.238,650.978 737.5,649.5C 737.893,647.716 738.559,646.05 739.5,644.5C 740.15,644.196 740.817,643.863 741.5,643.5C 742.068,639.031 743.735,635.031 746.5,631.5C 747.167,632.833 747.833,634.167 748.5,635.5C 749.689,632.702 749.356,630.036 747.5,627.5C 747.737,624.937 748.237,624.937 749,627.5C 750.114,624.709 750.28,621.709 749.5,618.5C 749.796,616.597 750.463,614.93 751.5,613.5C 752.75,613.423 753.583,612.756 754,611.5C 754.822,608.883 755.322,606.216 755.5,603.5C 758.554,592.98 762.554,582.98 767.5,573.5C 771.157,573.88 772.157,572.547 770.5,569.5C 770.928,565.774 772.261,562.441 774.5,559.5C 775.167,560.833 775.833,562.167 776.5,563.5C 777.167,558.167 777.833,552.833 778.5,547.5C 780.275,546.371 781.942,545.371 783.5,544.5C 781.458,543.497 781.125,542.163 782.5,540.5C 781.675,539.614 780.675,539.281 779.5,539.5C 748.5,539.5 717.5,539.5 686.5,539.5C 684.62,539.771 683.287,539.104 682.5,537.5C 682.446,535.368 681.446,534.035 679.5,533.5C 681.039,528.654 681.706,523.654 681.5,518.5C 681.5,518.167 681.5,517.833 681.5,517.5C 683.541,517.146 685.374,517.146 687,517.5C 686.656,515.742 686.156,513.909 685.5,512C 685.915,508.894 686.915,508.728 688.5,511.5C 690.225,508.326 691.558,504.993 692.5,501.5C 693.167,502.833 693.833,504.167 694.5,505.5C 695.248,502.503 695.915,499.503 696.5,496.5C 695.675,495.614 694.675,495.281 693.5,495.5C 693.762,496.978 693.429,498.311 692.5,499.5C 692.167,498.5 691.833,497.5 691.5,496.5C 692.795,493.621 693.462,490.621 693.5,487.5C 694.833,487.5 696.167,487.5 697.5,487.5C 697.18,484.102 697.513,480.768 698.5,477.5C 699.167,478.833 699.833,480.167 700.5,481.5C 701.721,474.845 702.721,468.179 703.5,461.5C 703.604,459.297 704.27,457.297 705.5,455.5C 706.735,455.279 707.735,454.612 708.5,453.5C 709.333,455.5 710.167,457.5 711,459.5C 712.563,455.412 713.73,451.245 714.5,447C 714.043,446.586 713.709,446.086 713.5,445.5C 717.021,439.349 718.354,432.683 717.5,425.5C 719.074,423.898 719.741,421.898 719.5,419.5C 720.5,419.5 721.5,419.5 722.5,419.5C 723.051,416.193 723.384,412.86 723.5,409.5C 725.274,398.577 730.941,390.577 740.5,385.5C 742.027,385.573 743.027,384.906 743.5,383.5C 744.167,383.5 744.833,383.5 745.5,383.5C 777.851,384.159 809.851,383.493 841.5,381.5C 844.359,371.983 847.692,362.65 851.5,353.5C 852.906,353.027 853.573,352.027 853.5,350.5C 855.369,343.112 858.036,336.112 861.5,329.5C 863.074,327.898 863.741,325.898 863.5,323.5C 864.971,318.563 866.971,313.896 869.5,309.5C 870.5,309.5 871.5,309.5 872.5,309.5C 872.5,307.5 872.5,305.5 872.5,303.5C 875.205,303.62 875.872,302.62 874.5,300.5C 875.5,299.833 876.5,299.167 877.5,298.5C 875.995,297.158 875.328,295.492 875.5,293.5C 875.5,293.167 875.5,292.833 875.5,292.5C 877.104,291.713 877.771,290.38 877.5,288.5C 878.459,284.617 879.792,280.95 881.5,277.5C 882.75,277.423 883.583,276.756 884,275.5C 884.822,272.883 885.322,270.216 885.5,267.5C 885.833,266.5 886.5,265.833 887.5,265.5C 891.026,263.377 894.026,260.71 896.5,257.5C 898.027,257.573 899.027,256.906 899.5,255.5C 940.125,254.345 980.792,254.178 1021.5,255C 1025.87,256.554 1028.21,259.721 1028.5,264.5C 1027.8,268.969 1026.63,273.303 1025,277.5C 1024.39,279.066 1023.56,280.4 1022.5,281.5 Z"/></g>
<g><path style="opacity:1" fill="#ddb48f" d="M 899.5,255.5 C 899.027,256.906 898.027,257.573 896.5,257.5C 896.973,256.094 897.973,255.427 899.5,255.5 Z"/></g>
<g><path style="opacity:1" fill="#de7e56" d="M 896.5,257.5 C 894.026,260.71 891.026,263.377 887.5,265.5C 889.249,261.418 892.249,258.751 896.5,257.5 Z"/></g>
<g><path style="opacity:1" fill="#44a459" d="M 424.5,251.5 C 423.193,256.094 421.193,260.427 418.5,264.5C 419.309,266.071 419.643,267.738 419.5,269.5C 416.583,269.365 413.916,270.032 411.5,271.5C 415.338,264.484 419.672,257.817 424.5,251.5 Z"/></g>
<g><path style="opacity:1" fill="#3b9f53" d="M 555.5,251.5 C 554.947,253.939 554.947,256.273 555.5,258.5C 549.763,260.785 549.096,264.119 553.5,268.5C 551.932,270.544 550.098,270.878 548,269.5C 546.7,270.707 545.2,271.374 543.5,271.5C 547.137,264.549 551.137,257.882 555.5,251.5 Z"/></g>
<g><path style="opacity:1" fill="#5fb172" d="M 459.5,271.5 C 458,275.173 456,278.506 453.5,281.5C 453.917,278.657 454.917,275.99 456.5,273.5C 457.265,272.388 458.265,271.721 459.5,271.5 Z"/></g>
<g><path style="opacity:1" fill="#3ca154" d="M 721.5,267.5 C 718,274.506 714,281.173 709.5,287.5C 709.986,285.193 709.986,283.027 709.5,281C 711.953,279.152 712.953,276.652 712.5,273.5C 713.5,273.5 714.5,273.5 715.5,273.5C 714.839,268.832 716.839,266.832 721.5,267.5 Z"/></g>
<g><path style="opacity:1" fill="#db875b" d="M 885.5,267.5 C 885.322,270.216 884.822,272.883 884,275.5C 883.583,276.756 882.75,277.423 881.5,277.5C 882.267,273.851 883.6,270.518 885.5,267.5 Z"/></g>
<g><path style="opacity:1" fill="#58b16e" d="M 581.5,279.5 C 580.331,282.511 578.664,285.178 576.5,287.5C 576.17,283.512 577.837,280.845 581.5,279.5 Z"/></g>
<g><path style="opacity:0.627" fill="#e8936c" d="M 1022.5,281.5 C 1022.27,284.542 1021.27,287.208 1019.5,289.5C 1019.14,286.224 1020.14,283.557 1022.5,281.5 Z"/></g>
<g><path style="opacity:0.863" fill="#65b17c" d="M 709.5,287.5 C 708,291.173 706,294.506 703.5,297.5C 704.303,294.332 705.636,291.332 707.5,288.5C 707.957,287.702 708.624,287.369 709.5,287.5 Z"/></g>
<g><path style="opacity:0.298" fill="#ecad88" d="M 877.5,288.5 C 877.771,290.38 877.104,291.713 875.5,292.5C 875.66,290.847 876.326,289.514 877.5,288.5 Z"/></g>
<g><path style="opacity:1" fill="#47a25b" d="M 543.5,272.5 C 543.094,275.988 542.094,279.321 540.5,282.5C 536.365,284.858 534.698,288.525 535.5,293.5C 534.022,293.238 532.689,293.571 531.5,294.5C 530.846,296.858 529.513,298.525 527.5,299.5C 532.081,289.997 537.414,280.997 543.5,272.5 Z"/></g>
<g><path style="opacity:1" fill="#3ba255" d="M 447.5,291.5 C 445.003,297.165 442.003,302.498 438.5,307.5C 438.511,305.453 438.844,303.453 439.5,301.5C 439.081,300.328 438.415,299.328 437.5,298.5C 439.5,297.833 441.5,297.167 443.5,296.5C 444.485,294.902 444.651,293.235 444,291.5C 440.346,288.729 440.846,287.395 445.5,287.5C 445.157,289.483 445.824,290.817 447.5,291.5 Z"/></g>
<g><path style="opacity:1" fill="#47a55d" d="M 573.5,293.5 C 570.818,298.202 568.151,302.869 565.5,307.5C 566.357,304.451 566.357,301.451 565.5,298.5C 568.468,297.176 571.134,295.509 573.5,293.5 Z"/></g>
<g><path style="opacity:1" fill="#43a358" d="M 703.5,297.5 C 699.559,305.428 695.226,313.095 690.5,320.5C 690.5,318.167 690.5,315.833 690.5,313.5C 691.5,313.5 692.5,313.5 693.5,313.5C 693.84,310.856 693.173,308.523 691.5,306.5C 692.5,305.5 693.5,304.5 694.5,303.5C 695.623,305.289 696.956,305.622 698.5,304.5C 698.974,301.187 700.64,298.853 703.5,297.5 Z"/></g>
<g><path style="opacity:1" fill="#50aa64" d="M 438.5,307.5 C 436.554,311.439 434.221,315.106 431.5,318.5C 431.762,315.309 433.095,312.642 435.5,310.5C 434.11,308.831 433.777,307.164 434.5,305.5C 435.524,306.853 436.857,307.52 438.5,307.5 Z"/></g>
<g><path style="opacity:1" fill="#5eaa74" d="M 527.5,299.5 C 527.013,303.819 525.013,307.152 521.5,309.5C 523,305.827 525,302.494 527.5,299.5 Z"/></g>
<g><path style="opacity:1" fill="#e17b4d" d="M 875.5,293.5 C 875.328,295.492 875.995,297.158 877.5,298.5C 876.5,299.167 875.5,299.833 874.5,300.5C 875.872,302.62 875.205,303.62 872.5,303.5C 872.5,305.5 872.5,307.5 872.5,309.5C 871.5,309.5 870.5,309.5 869.5,309.5C 870.531,303.733 872.531,298.399 875.5,293.5 Z"/></g>
<g><path style="opacity:0.333" fill="#e7a77b" d="M 1009.5,315.5 C 1009.77,317.38 1009.1,318.713 1007.5,319.5C 1007.66,317.847 1008.33,316.514 1009.5,315.5 Z"/></g>
<g><path style="opacity:0.82" fill="#75b382" d="M 431.5,319.5 C 430.525,321.795 429.192,323.795 427.5,325.5C 427.354,322.446 428.687,320.446 431.5,319.5 Z"/></g>
<g><path style="opacity:1" fill="#e1ad85" d="M 863.5,323.5 C 863.741,325.898 863.074,327.898 861.5,329.5C 861.259,327.102 861.926,325.102 863.5,323.5 Z"/></g>
<g><path style="opacity:1" fill="#58a86d" d="M 511.5,326.5 C 511.876,329.923 510.543,332.256 507.5,333.5C 508.079,330.669 509.412,328.336 511.5,326.5 Z"/></g>
<g><path style="opacity:0.549" fill="#6ab07c" d="M 639.5,325.5 C 638.495,329.523 636.495,332.856 633.5,335.5C 635,331.827 637,328.494 639.5,325.5 Z"/></g>
<g><path style="opacity:1" fill="#e67845" d="M 1005.5,325.5 C 1003.42,332.539 1000.76,339.206 997.5,345.5C 995.835,342.423 995.169,339.256 995.5,336C 995.833,335.833 996.167,335.667 996.5,335.5C 997.167,336.833 997.833,338.167 998.5,339.5C 999.167,335.5 999.833,331.5 1000.5,327.5C 1001.17,328.167 1001.83,328.833 1002.5,329.5C 1002.83,329.167 1003.17,328.833 1003.5,328.5C 1000.47,323.876 1001.14,322.876 1005.5,325.5 Z"/></g>
<g><path style="opacity:0.902" fill="#66b37c" d="M 423.5,331.5 C 421.327,335.852 418.66,339.852 415.5,343.5C 417.197,339.448 418.864,335.448 420.5,331.5C 421.5,331.5 422.5,331.5 423.5,331.5 Z"/></g>
<g><path style="opacity:1" fill="#59ac6f" d="M 551.5,331.5 C 550,335.173 548,338.506 545.5,341.5C 546.043,337.985 547.043,334.652 548.5,331.5C 549.5,331.5 550.5,331.5 551.5,331.5 Z"/></g>
<g><path style="opacity:1" fill="#4ca961" d="M 681.5,335.5 C 679.613,340.941 676.947,345.941 673.5,350.5C 673.579,349.07 673.246,347.736 672.5,346.5C 676.255,344.467 677.421,341.467 676,337.5C 677.016,336.366 677.683,336.699 678,338.5C 678.759,336.937 679.926,335.937 681.5,335.5 Z"/></g>
<g><path style="opacity:1" fill="#6eb580" d="M 543.5,345.5 C 542.89,347.434 541.89,349.101 540.5,350.5C 540.5,348.833 540.5,347.167 540.5,345.5C 541.5,345.5 542.5,345.5 543.5,345.5 Z"/></g>
<g><path style="opacity:1" fill="#55a866" d="M 415.5,343.5 C 413.145,348.88 409.812,353.546 405.5,357.5C 406.15,355.565 406.483,353.565 406.5,351.5C 407.5,351.5 408.5,351.5 409.5,351.5C 409.666,348.832 410.666,346.498 412.5,344.5C 413.325,343.614 414.325,343.281 415.5,343.5 Z"/></g>
<g><path style="opacity:0.035" fill="#f7cda9" d="M 853.5,350.5 C 853.573,352.027 852.906,353.027 851.5,353.5C 851.427,351.973 852.094,350.973 853.5,350.5 Z"/></g>
<g><path style="opacity:1" fill="#44a55b" d="M 537.5,355.5 C 534,362.506 530,369.173 525.5,375.5C 525.67,374.178 525.337,373.011 524.5,372C 525.624,371.751 526.624,371.251 527.5,370.5C 529.509,367.307 530.009,363.974 529,360.5C 532.235,359.414 535.068,357.747 537.5,355.5 Z"/></g>
<g><path style="opacity:1" fill="#4ba460" d="M 621.5,357.5 C 620.243,362.384 618.576,367.05 616.5,371.5C 615.5,371.5 614.5,371.5 613.5,371.5C 615.159,366.173 617.826,361.507 621.5,357.5 Z"/></g>
<g><path style="opacity:1" fill="#5baf71" d="M 669.5,357.5 C 668.502,361.505 666.502,364.839 663.5,367.5C 663.917,364.657 664.917,361.99 666.5,359.5C 667.265,358.388 668.265,357.721 669.5,357.5 Z"/></g>
<g><path style="opacity:1" fill="#3c9f54" d="M 491.5,359.5 C 490.183,363.059 489.183,366.725 488.5,370.5C 487.675,371.386 486.675,371.719 485.5,371.5C 485.5,372.833 485.5,374.167 485.5,375.5C 484.022,375.238 482.689,375.571 481.5,376.5C 481.121,378.213 480.121,379.213 478.5,379.5C 482.054,372.289 486.387,365.622 491.5,359.5 Z"/></g>
<g><path style="opacity:1" fill="#3d9f56" d="M 344.5,365.5 C 343.735,368.096 343.401,370.763 343.5,373.5C 342.167,373.5 340.833,373.5 339.5,373.5C 339.5,374.833 339.5,376.167 339.5,377.5C 337.712,377.215 336.045,377.548 334.5,378.5C 334.29,382.38 332.29,384.047 328.5,383.5C 333.468,377.197 338.802,371.197 344.5,365.5 Z"/></g>
<g><path style="opacity:0.843" fill="#71bc85" d="M 392.5,375.5 C 390.984,378.533 388.984,381.2 386.5,383.5C 386.975,379.691 388.975,377.025 392.5,375.5 Z"/></g>
<g><path style="opacity:1" fill="#5bac6d" d="M 613.5,371.5 C 612.948,375.81 610.948,379.143 607.5,381.5C 609,377.827 611,374.494 613.5,371.5 Z"/></g>
<g><path style="opacity:1" fill="#62ae71" d="M 523.5,379.5 C 522.331,382.511 520.664,385.178 518.5,387.5C 519.167,384.833 519.833,382.167 520.5,379.5C 521.5,379.5 522.5,379.5 523.5,379.5 Z"/></g>
<g><path style="opacity:0.02" fill="#fad2b1" d="M 985.5,378.5 C 985.586,379.496 985.252,380.329 984.5,381C 985.737,381.232 986.737,381.732 987.5,382.5C 986.167,382.5 984.833,382.5 983.5,382.5C 983.229,380.62 983.896,379.287 985.5,378.5 Z"/></g>
<g><path style="opacity:1" fill="#cf9e80" d="M 841.5,381.5 C 809.851,383.493 777.851,384.159 745.5,383.5C 747.292,382.691 749.292,382.191 751.5,382C 781.498,381.5 811.498,381.333 841.5,381.5 Z"/></g>
<g><path style="opacity:1" fill="#ce9c7f" d="M 1077.5,383.5 C 1046,383.832 1014.66,383.498 983.5,382.5C 984.833,382.5 986.167,382.5 987.5,382.5C 1015.46,381.35 1043.46,381.184 1071.5,382C 1073.71,382.191 1075.71,382.691 1077.5,383.5 Z"/></g>
<g><path style="opacity:0.235" fill="#e2c0a2" d="M 743.5,383.5 C 743.027,384.906 742.027,385.573 740.5,385.5C 740.973,384.094 741.973,383.427 743.5,383.5 Z"/></g>
<g><path style="opacity:1" fill="#51a366" d="M 478.5,379.5 C 477.25,382.006 476.584,384.673 476.5,387.5C 475.5,387.5 474.5,387.5 473.5,387.5C 474.669,384.489 476.336,381.822 478.5,379.5 Z"/></g>
<g><path style="opacity:1" fill="#40a458" d="M 663.5,367.5 C 658.933,376.968 654.099,386.302 649,395.5C 648.051,397.093 646.885,398.426 645.5,399.5C 645.571,396.689 646.238,394.022 647.5,391.5C 646.833,390.167 646.167,388.833 645.5,387.5C 645.833,386.833 646.167,386.167 646.5,385.5C 647.333,386.5 648.167,387.5 649,388.5C 651.012,386.318 652.012,383.651 652,380.5C 652.741,381.641 653.575,381.641 654.5,380.5C 655.597,378.771 656.763,377.104 658,375.5C 658.72,373.888 658.554,372.388 657.5,371C 659.481,369.732 661.481,368.566 663.5,367.5 Z"/></g>
<g><path style="opacity:0.914" fill="#5dab71" d="M 386.5,383.5 C 382.511,388.821 378.178,393.821 373.5,398.5C 375.311,394.005 377.977,390.005 381.5,386.5C 382.728,384.679 384.394,383.679 386.5,383.5 Z"/></g>
<g><path style="opacity:1" fill="#50ab66" d="M 518.5,387.5 C 516.668,391.836 514.335,395.836 511.5,399.5C 512.5,395.5 513.5,391.5 514.5,387.5C 515.833,387.5 517.167,387.5 518.5,387.5 Z"/></g>
<g><path style="opacity:0.243" fill="#f1ad86" d="M 1083.5,387.5 C 1085.53,390.708 1085.86,394.041 1084.5,397.5C 1084.38,394.14 1084.05,390.807 1083.5,387.5 Z"/></g>
<g><path style="opacity:1" fill="#e18556" d="M 1084.5,397.5 C 1084.27,400.542 1083.27,403.208 1081.5,405.5C 1081.64,403.738 1081.31,402.071 1080.5,400.5C 1082.01,399.611 1083.34,398.611 1084.5,397.5 Z"/></g>
<g><path style="opacity:1" fill="#349d4d" d="M 316.5,395.5 C 314.916,398.136 315.249,400.47 317.5,402.5C 316.902,403.795 316.402,405.128 316,406.5C 314.492,404.162 312.325,403.162 309.5,403.5C 309.933,406.285 311.266,408.619 313.5,410.5C 310.161,411.875 306.994,411.541 304,409.5C 301.98,410.032 301.147,411.365 301.5,413.5C 298.892,413.4 296.558,414.067 294.5,415.5C 301.792,408.843 309.125,402.176 316.5,395.5 Z"/></g>
<g><path style="opacity:1" fill="#3f9f55" d="M 469.5,393.5 C 467.857,397.3 467.19,401.3 467.5,405.5C 465.5,405.5 463.5,405.5 461.5,405.5C 460.578,408.126 459.578,410.793 458.5,413.5C 455.488,416.236 452.488,418.903 449.5,421.5C 455.679,411.806 462.345,402.473 469.5,393.5 Z"/></g>
<g><path style="opacity:1" fill="#3a9e54" d="M 601.5,392.5 C 601.273,395.577 600.273,398.41 598.5,401C 598.645,401.772 598.978,402.439 599.5,403C 596.717,404.727 595.05,407.227 594.5,410.5C 592.269,412.055 590.269,413.722 588.5,415.5C 592.077,407.339 596.411,399.672 601.5,392.5 Z"/></g>
<g><path style="opacity:1" fill="#eb936d" d="M 1081.5,407.5 C 1080.35,410.298 1079.02,412.965 1077.5,415.5C 1076.96,411.741 1078.29,409.074 1081.5,407.5 Z"/></g>
<g><path style="opacity:0.667" fill="#6bb17a" d="M 366.5,405.5 C 362.199,411.469 357.199,416.802 351.5,421.5C 351.5,420.167 351.5,418.833 351.5,417.5C 352.675,417.719 353.675,417.386 354.5,416.5C 358.24,412.421 362.24,408.754 366.5,405.5 Z"/></g>
<g><path style="opacity:0.91" fill="#54a867" d="M 643.5,403.5 C 641.003,409.165 638.003,414.498 634.5,419.5C 634.795,415.772 635.461,412.105 636.5,408.5C 637.167,408.833 637.833,409.167 638.5,409.5C 639.728,406.987 641.395,404.987 643.5,403.5 Z"/></g>
<g><path style="opacity:1" fill="#e08153" d="M 723.5,409.5 C 723.384,412.86 723.051,416.193 722.5,419.5C 721.5,419.5 720.5,419.5 719.5,419.5C 720.311,415.89 721.644,412.556 723.5,409.5 Z"/></g>
<g><path style="opacity:1" fill="#43a257" d="M 501.5,415.5 C 496.191,424.13 490.525,432.464 484.5,440.5C 484.429,437.976 485.429,435.976 487.5,434.5C 486.128,432.38 486.795,431.38 489.5,431.5C 489.863,428.437 490.53,425.437 491.5,422.5C 490.982,419.977 489.648,417.977 487.5,416.5C 491.479,415.462 493.479,417.128 493.5,421.5C 494.675,421.719 495.675,421.386 496.5,420.5C 497.544,418.123 499.21,416.456 501.5,415.5 Z"/></g>
<g><path style="opacity:1" fill="#e19e79" d="M 719.5,419.5 C 719.741,421.898 719.074,423.898 717.5,425.5C 717.259,423.102 717.926,421.102 719.5,419.5 Z"/></g>
<g><path style="opacity:0.974" fill="#e57e50" d="M 1075.5,421.5 C 1074.25,426.878 1072.25,431.878 1069.5,436.5C 1069.52,434.857 1068.85,433.524 1067.5,432.5C 1068.81,430.684 1070.31,429.017 1072,427.5C 1072.5,425.527 1072.66,423.527 1072.5,421.5C 1073.5,421.5 1074.5,421.5 1075.5,421.5 Z"/></g>
<g><path style="opacity:1" fill="#e26f3a" d="M 717.5,425.5 C 718.354,432.683 717.021,439.349 713.5,445.5C 713.709,446.086 714.043,446.586 714.5,447C 713.73,451.245 712.563,455.412 711,459.5C 710.167,457.5 709.333,455.5 708.5,453.5C 707.735,454.612 706.735,455.279 705.5,455.5C 708.942,445.151 712.942,435.151 717.5,425.5 Z"/></g>
<g><path style="opacity:1" fill="#5cb070" d="M 484.5,441.5 C 483.28,443.981 481.614,445.981 479.5,447.5C 479.377,443.96 481.043,441.96 484.5,441.5 Z"/></g>
<g><path style="opacity:0.961" fill="#6eb880" d="M 477.5,451.5 C 476.396,453.389 475.063,455.055 473.5,456.5C 473.197,453.412 474.53,451.746 477.5,451.5 Z"/></g>
<g><path style="opacity:0.843" fill="#60aa73" d="M 311.5,453.5 C 309.2,455.984 306.533,457.984 303.5,459.5C 305.24,456.337 307.907,454.337 311.5,453.5 Z"/></g>
<g><path style="opacity:0.718" fill="#72ba86" d="M 303.5,459.5 C 301.66,461.669 299.326,463.002 296.5,463.5C 298.027,460.932 300.361,459.599 303.5,459.5 Z"/></g>
<g><path style="opacity:1" fill="#5eab6f" d="M 472.5,457.5 C 469.883,462.114 466.883,466.447 463.5,470.5C 463.586,468.323 464.253,466.323 465.5,464.5C 467.209,461.457 469.543,459.124 472.5,457.5 Z"/></g>
<g><path style="opacity:1" fill="#73b68a" d="M 214.5,461.5 C 212.898,463.074 210.898,463.741 208.5,463.5C 210.102,461.926 212.102,461.259 214.5,461.5 Z"/></g>
<g><path style="opacity:1" fill="#55a669" d="M 207.5,463.5 C 204.624,466.524 200.958,467.857 196.5,467.5C 199.902,465.722 203.569,464.389 207.5,463.5 Z"/></g>
<g><path style="opacity:0.357" fill="#87c29e" d="M 290.5,467.5 C 290.027,468.906 289.027,469.573 287.5,469.5C 287.821,467.952 288.821,467.285 290.5,467.5 Z"/></g>
<g><path style="opacity:0.235" fill="#f1ae90" d="M 1058.5,465.5 C 1058.02,468.443 1057.02,471.11 1055.5,473.5C 1055.5,472.167 1055.5,470.833 1055.5,469.5C 1056.5,468.167 1057.5,466.833 1058.5,465.5 Z"/></g>
<g><path style="opacity:1" fill="#50a263" d="M 195.5,467.5 C 191.211,470.898 186.211,472.231 180.5,471.5C 185.261,469.674 190.261,468.341 195.5,467.5 Z"/></g>
<g><path style="opacity:1" fill="#e27844" d="M 703.5,461.5 C 702.721,468.179 701.721,474.845 700.5,481.5C 699.833,480.167 699.167,478.833 698.5,477.5C 697.513,480.768 697.18,484.102 697.5,487.5C 696.167,487.5 694.833,487.5 693.5,487.5C 696.258,478.552 699.591,469.885 703.5,461.5 Z"/></g>
<g><path style="opacity:0.902" fill="#63ad73" d="M 175.5,472.5 C 170.676,475.169 165.343,476.169 159.5,475.5C 164.57,473.77 169.903,472.77 175.5,472.5 Z"/></g>
<g><path style="opacity:0.016" fill="#a6dfb4" d="M 279.5,473.5 C 279.027,474.906 278.027,475.573 276.5,475.5C 276.973,474.094 277.973,473.427 279.5,473.5 Z"/></g>
<g><path style="opacity:1" fill="#59aa6b" d="M 462.5,471.5 C 457.874,478.126 452.874,484.46 447.5,490.5C 451.02,482.982 456.02,476.649 462.5,471.5 Z"/></g>
<g><path style="opacity:1" fill="#4da562" d="M 275.5,475.5 C 272.294,478.271 268.627,480.271 264.5,481.5C 266.539,476.71 270.206,474.71 275.5,475.5 Z"/></g>
<g><path style="opacity:1" fill="#e78154" d="M 1055.5,469.5 C 1055.5,470.833 1055.5,472.167 1055.5,473.5C 1052.07,483.804 1048.07,493.804 1043.5,503.5C 1042.99,500.824 1042.83,498.157 1043,495.5C 1043.31,496.308 1043.81,496.975 1044.5,497.5C 1046.68,494.737 1047.01,491.737 1045.5,488.5C 1046.69,487.571 1048.02,487.238 1049.5,487.5C 1049.71,485.08 1049.37,482.747 1048.5,480.5C 1049.69,479.571 1051.02,479.238 1052.5,479.5C 1052.4,476.781 1052.73,474.115 1053.5,471.5C 1053.75,470.287 1054.41,469.62 1055.5,469.5 Z"/></g>
<g><path style="opacity:0.937" fill="#62b177" d="M 263.5,481.5 C 261.163,483.396 258.496,484.73 255.5,485.5C 257.281,482.645 259.948,481.312 263.5,481.5 Z"/></g>
<g><path style="opacity:1" fill="#509d63" d="M 56.5,479.5 C 55.7659,480.708 55.4326,482.041 55.5,483.5C 53.0706,483.884 50.7373,484.551 48.5,485.5C 50.4426,482.529 53.1092,480.529 56.5,479.5 Z"/></g>
<g><path style="opacity:1" fill="#45a25a" d="M 549.5,479.5 C 548.977,482.89 548.143,486.223 547,489.5C 544.057,491.118 541.557,493.118 539.5,495.5C 542.336,489.822 545.669,484.489 549.5,479.5 Z"/></g>
<g><path style="opacity:0.961" fill="#5fad73" d="M 254.5,485.5 C 246.908,489.808 238.908,493.142 230.5,495.5C 230.721,494.265 231.388,493.265 232.5,492.5C 239.834,490.03 247.168,487.696 254.5,485.5 Z"/></g>
<g><path style="opacity:1" fill="#74b184" d="M 229.5,495.5 C 227.898,497.074 225.898,497.741 223.5,497.5C 224.918,495.692 226.918,495.025 229.5,495.5 Z"/></g>
<g><path style="opacity:0.843" fill="#5dae71" d="M 446.5,491.5 C 442.917,497.419 438.584,502.752 433.5,507.5C 433.238,506.022 433.571,504.689 434.5,503.5C 438.218,500.384 441.218,496.718 443.5,492.5C 444.325,491.614 445.325,491.281 446.5,491.5 Z"/></g>
<g><path style="opacity:0.765" fill="#63af77" d="M 222.5,497.5 C 219.085,499.279 215.419,500.613 211.5,501.5C 214.446,498.461 218.113,497.128 222.5,497.5 Z"/></g>
<g><path style="opacity:1" fill="#3aa050" d="M 593.5,489.5 C 587.996,499.181 581.996,508.515 575.5,517.5C 575.666,514.832 576.666,512.498 578.5,510.5C 574.16,504.139 575.493,499.139 582.5,495.5C 583.251,496.376 583.751,497.376 584,498.5C 585.205,497.929 586.372,497.262 587.5,496.5C 587.167,495.833 586.833,495.167 586.5,494.5C 588.328,491.987 590.661,490.321 593.5,489.5 Z"/></g>
<g><path style="opacity:1" fill="#e36f3b" d="M 693.5,487.5 C 693.462,490.621 692.795,493.621 691.5,496.5C 691.833,497.5 692.167,498.5 692.5,499.5C 693.429,498.311 693.762,496.978 693.5,495.5C 694.675,495.281 695.675,495.614 696.5,496.5C 695.915,499.503 695.248,502.503 694.5,505.5C 693.833,504.167 693.167,502.833 692.5,501.5C 691.558,504.993 690.225,508.326 688.5,511.5C 686.915,508.728 685.915,508.894 685.5,512C 686.156,513.909 686.656,515.742 687,517.5C 685.374,517.146 683.541,517.146 681.5,517.5C 684.936,507.174 688.936,497.174 693.5,487.5 Z"/></g>
<g><path style="opacity:1" fill="#55aa6a" d="M 209.5,501.5 C 202.523,504.37 195.19,506.37 187.5,507.5C 187.389,506.883 187.056,506.383 186.5,506C 190.074,505.531 193.408,504.364 196.5,502.5C 200.783,501.508 205.116,501.174 209.5,501.5 Z"/></g>
<g><path style="opacity:0.027" fill="#aae7b8" d="M 185.5,507.5 C 183.162,509.04 180.495,509.706 177.5,509.5C 179.905,508.232 182.572,507.565 185.5,507.5 Z"/></g>
<g><path style="opacity:0.475" fill="#78b282" d="M 175.5,509.5 C 173.039,510.531 170.373,511.198 167.5,511.5C 169.635,509.631 172.302,508.964 175.5,509.5 Z"/></g>
<g><path style="opacity:1" fill="#72b07d" d="M 162.5,511.5 C 159.829,513.118 156.829,513.785 153.5,513.5C 153.389,512.883 153.056,512.383 152.5,512C 155.817,511.502 159.15,511.335 162.5,511.5 Z"/></g>
<g><path style="opacity:1" fill="#e7875a" d="M 1039.5,513.5 C 1038.82,518.902 1036.82,523.568 1033.5,527.5C 1034.47,524.514 1035.47,521.514 1036.5,518.5C 1034.21,514.82 1035.21,513.153 1039.5,513.5 Z"/></g>
<g><path style="opacity:0.647" fill="#60b871" d="M 128.5,515.5 C 115.37,517.042 102.037,517.709 88.5,517.5C 78.6608,517.5 68.9941,517.166 59.5,516.5C 82.5087,516.615 105.509,516.282 128.5,515.5 Z"/></g>
<g><path style="opacity:0.878" fill="#62b172" d="M 423.5,517.5 C 421.57,521.1 418.903,524.1 415.5,526.5C 417.093,522.572 419.76,519.572 423.5,517.5 Z"/></g>
<g><path style="opacity:1" fill="#df7e50" d="M 681.5,518.5 C 681.706,523.654 681.039,528.654 679.5,533.5C 678.359,530.36 678.192,527.027 679,523.5C 679.374,521.509 680.207,519.842 681.5,518.5 Z"/></g>
<g><path style="opacity:0.914" fill="#5faf70" d="M 414.5,527.5 C 409.473,533.194 404.14,538.527 398.5,543.5C 398.5,542.167 398.5,540.833 398.5,539.5C 399.675,539.719 400.675,539.386 401.5,538.5C 405.3,534.019 409.634,530.352 414.5,527.5 Z"/></g>
<g><path style="opacity:0.647" fill="#e99471" d="M 1033.5,527.5 C 1032.53,530.135 1030.86,532.135 1028.5,533.5C 1029.19,530.623 1030.86,528.623 1033.5,527.5 Z"/></g>
<g><path style="opacity:1" fill="#429f57" d="M 351.5,525.5 C 349.887,528.446 347.554,530.78 344.5,532.5C 345.376,533.251 346.376,533.751 347.5,534C 346.351,535.744 345.017,535.911 343.5,534.5C 342.328,534.919 341.328,535.585 340.5,536.5C 341.879,537.863 341.713,538.863 340,539.5C 339,538.833 338,538.167 337,537.5C 334.107,541.198 330.273,543.198 325.5,543.5C 333.886,537.117 342.553,531.117 351.5,525.5 Z"/></g>
<g><path style="opacity:0.882" fill="#eaa07a" d="M 1028.5,533.5 C 1027.13,535.207 1025.46,536.54 1023.5,537.5C 1023.79,534.516 1025.45,533.183 1028.5,533.5 Z"/></g>
<g><path style="opacity:0.569" fill="#e08a6b" d="M 679.5,533.5 C 681.446,534.035 682.446,535.368 682.5,537.5C 680.554,536.965 679.554,535.632 679.5,533.5 Z"/></g>
<g><path style="opacity:1" fill="#3fa056" d="M 523.5,519.5 C 521.597,525.767 518.931,531.6 515.5,537C 511.555,537.443 509.555,539.61 509.5,543.5C 508.167,543.5 506.833,543.5 505.5,543.5C 511.147,535.193 517.147,527.193 523.5,519.5 Z"/></g>
<g><path style="opacity:1" fill="#5aaf6e" d="M 571.5,523.5 C 567.662,530.516 563.328,537.183 558.5,543.5C 558.357,541.738 558.691,540.071 559.5,538.5C 563.804,534.217 566.804,529.217 568.5,523.5C 569.5,523.5 570.5,523.5 571.5,523.5 Z"/></g>
<g><path style="opacity:0.102" fill="#d5b0a3" d="M 686.5,539.5 C 717.5,539.5 748.5,539.5 779.5,539.5C 779.768,541.099 779.434,542.432 778.5,543.5C 778.5,542.5 778.5,541.5 778.5,540.5C 747.662,540.831 716.995,540.498 686.5,539.5 Z"/></g>
<g><path style="opacity:0.102" fill="#d5b1a2" d="M 922.5,539.5 C 953.5,539.5 984.5,539.5 1015.5,539.5C 984.598,540.174 953.598,540.841 922.5,541.5C 922.5,540.833 922.5,540.167 922.5,539.5 Z"/></g>
<g><path style="opacity:0.937" fill="#5bad72" d="M 397.5,543.5 C 395.761,546.243 393.427,548.243 390.5,549.5C 391.914,546.418 394.248,544.418 397.5,543.5 Z"/></g>
<g><path style="opacity:1" fill="#429e59" d="M 325.5,543.5 C 324.766,544.708 324.433,546.041 324.5,547.5C 322.712,547.215 321.045,547.548 319.5,548.5C 317.582,551.106 314.916,552.106 311.5,551.5C 315.833,548.331 320.5,545.664 325.5,543.5 Z"/></g>
<g><path style="opacity:1" fill="#e57d49" d="M 922.5,539.5 C 922.5,540.167 922.5,540.833 922.5,541.5C 920.537,547.076 918.204,552.409 915.5,557.5C 915.84,554.856 915.173,552.523 913.5,550.5C 915.045,549.548 916.712,549.215 918.5,549.5C 918.304,545.394 919.637,542.061 922.5,539.5 Z"/></g>
<g><path style="opacity:0.765" fill="#5ca96d" d="M 390.5,549.5 C 388.761,552.243 386.427,554.243 383.5,555.5C 384.914,552.418 387.248,550.418 390.5,549.5 Z"/></g>
<g><path style="opacity:1" fill="#e2713c" d="M 779.5,539.5 C 780.675,539.281 781.675,539.614 782.5,540.5C 781.125,542.163 781.458,543.497 783.5,544.5C 781.942,545.371 780.275,546.371 778.5,547.5C 777.833,552.833 777.167,558.167 776.5,563.5C 775.833,562.167 775.167,560.833 774.5,559.5C 772.261,562.441 770.928,565.774 770.5,569.5C 772.157,572.547 771.157,573.88 767.5,573.5C 770.643,563.232 774.31,553.232 778.5,543.5C 779.434,542.432 779.768,541.099 779.5,539.5 Z"/></g>
<g><path style="opacity:1" fill="#3ca054" d="M 551.5,553.5 C 546.398,560.718 541.064,567.718 535.5,574.5C 535.519,572.94 535.852,571.44 536.5,570C 538.388,568.606 539.721,566.773 540.5,564.5C 540.291,563.914 539.957,563.414 539.5,563C 545.111,561.138 546.444,557.805 543.5,553C 543.833,552.5 544.167,552 544.5,551.5C 546.523,553.173 548.856,553.84 551.5,553.5 Z"/></g>
<g><path style="opacity:1" fill="#47a05c" d="M 311.5,551.5 C 308.101,556.747 303.101,559.414 296.5,559.5C 301.204,556.472 306.204,553.805 311.5,551.5 Z"/></g>
<g><path style="opacity:0.647" fill="#66b279" d="M 383.5,555.5 C 381.037,559.3 377.704,561.967 373.5,563.5C 375.342,560.806 377.676,558.472 380.5,556.5C 381.325,555.614 382.325,555.281 383.5,555.5 Z"/></g>
<g><path style="opacity:1" fill="#e48154" d="M 915.5,559.5 C 913.815,563.571 912.148,567.571 910.5,571.5C 910.511,569.453 910.844,567.453 911.5,565.5C 911.081,564.328 910.415,563.328 909.5,562.5C 911.553,561.473 913.553,560.473 915.5,559.5 Z"/></g>
<g><path style="opacity:1" fill="#58a86e" d="M 295.5,559.5 C 292.07,563.132 287.737,565.132 282.5,565.5C 286.381,562.751 290.715,560.751 295.5,559.5 Z"/></g>
<g><path style="opacity:0.475" fill="#6eb27b" d="M 373.5,563.5 C 372.415,565.587 370.749,566.92 368.5,567.5C 369.265,565.071 370.931,563.738 373.5,563.5 Z"/></g>
<g><path style="opacity:1" fill="#5dac74" d="M 282.5,565.5 C 279.757,567.858 276.423,569.191 272.5,569.5C 275.53,567.597 278.863,566.263 282.5,565.5 Z"/></g>
<g><path style="opacity:0.914" fill="#5daf6d" d="M 271.5,569.5 C 268.757,571.858 265.423,573.191 261.5,573.5C 264.518,571.6 267.851,570.267 271.5,569.5 Z"/></g>
<g><path style="opacity:0.863" fill="#67b179" d="M 362.5,571.5 C 359.403,574.888 355.736,577.555 351.5,579.5C 354.25,575.664 357.916,572.998 362.5,571.5 Z"/></g>
<g><path style="opacity:1" fill="#e58155" d="M 910.5,571.5 C 909.594,575.901 907.928,579.901 905.5,583.5C 905.84,580.856 905.173,578.523 903.5,576.5C 905.045,575.548 906.712,575.215 908.5,575.5C 908.157,573.517 908.824,572.183 910.5,571.5 Z"/></g>
<g><path style="opacity:1" fill="#4fa463" d="M 260.5,573.5 C 254.154,577.409 247.154,579.409 239.5,579.5C 246.301,577.126 253.301,575.126 260.5,573.5 Z"/></g>
<g><path style="opacity:0.522" fill="#83bd92" d="M 237.5,579.5 C 235.485,580.924 233.152,581.59 230.5,581.5C 232.515,580.076 234.848,579.41 237.5,579.5 Z"/></g>
<g><path style="opacity:1" fill="#58ac6e" d="M 229.5,581.5 C 226.663,583.402 223.329,584.069 219.5,583.5C 222.544,581.989 225.878,581.322 229.5,581.5 Z"/></g>
<g><path style="opacity:0.863" fill="#5ba771" d="M 534.5,575.5 C 532.889,579.051 530.556,582.051 527.5,584.5C 528.642,580.539 530.975,577.539 534.5,575.5 Z"/></g>
<g><path style="opacity:1" fill="#72af85" d="M 132.5,585.5 C 125.833,585.5 119.167,585.5 112.5,585.5C 114.848,584.048 117.514,583.382 120.5,583.5C 124.713,583.718 128.713,584.384 132.5,585.5 Z"/></g>
<g><path style="opacity:0.118" fill="#99c6a4" d="M 135.5,585.5 C 151.488,586.277 167.488,586.611 183.5,586.5C 177.009,587.166 170.342,587.5 163.5,587.5C 153.948,587.702 144.615,587.035 135.5,585.5 Z"/></g>
<g><path style="opacity:0.843" fill="#5bab6d" d="M 347.5,581.5 C 342.511,585.331 337.178,588.664 331.5,591.5C 332.234,590.292 332.567,588.959 332.5,587.5C 337.684,585.808 342.684,583.808 347.5,581.5 Z"/></g>
<g><path style="opacity:0.82" fill="#66af7c" d="M 330.5,591.5 C 327.322,594.258 323.655,596.258 319.5,597.5C 322.362,594.232 326.028,592.232 330.5,591.5 Z"/></g>
<g><path style="opacity:1" fill="#59ae6d" d="M 522.5,591.5 C 520.212,595.456 517.212,598.789 513.5,601.5C 513.5,600.167 513.5,598.833 513.5,597.5C 516.182,595.174 519.182,593.174 522.5,591.5 Z"/></g>
<g><path style="opacity:1" fill="#309c4c" d="M 111.5,585.5 C 109.396,588.37 107.396,591.37 105.5,594.5C 105.833,595.5 106.167,596.5 106.5,597.5C 106.888,594.684 108.221,592.684 110.5,591.5C 111.663,593.55 111.496,595.55 110,597.5C 107.571,598.029 105.738,599.363 104.5,601.5C 103.34,605.459 103.173,609.459 104,613.5C 106.055,614.93 108.221,616.263 110.5,617.5C 114.628,615.317 118.961,614.984 123.5,616.5C 120.913,617.619 118.58,618.953 116.5,620.5C 114.194,620.007 111.861,619.674 109.5,619.5C 105.98,618.817 103.48,616.817 102,613.5C 101.501,609.514 101.334,605.514 101.5,601.5C 103.163,599.562 103.829,597.228 103.5,594.5C 104.55,590.07 107.216,587.07 111.5,585.5 Z"/></g>
<g><path style="opacity:0.988" fill="#6eb67d" d="M 319.5,597.5 C 316.912,599.625 313.912,600.958 310.5,601.5C 312.777,598.867 315.777,597.534 319.5,597.5 Z"/></g>
<g><path style="opacity:0.322" fill="#76b684" d="M 103.5,594.5 C 103.829,597.228 103.163,599.562 101.5,601.5C 101.41,598.848 102.076,596.515 103.5,594.5 Z"/></g>
<g><path style="opacity:1" fill="#60ac72" d="M 310.5,601.5 C 306.584,604.257 302.25,606.257 297.5,607.5C 297.881,606.069 298.881,605.236 300.5,605C 300.167,604.667 299.833,604.333 299.5,604C 303.065,602.643 306.732,601.81 310.5,601.5 Z"/></g>
<g><path style="opacity:0.765" fill="#e28f65" d="M 899.5,599.5 C 898.737,603.137 897.403,606.47 895.5,609.5C 895.285,605.464 896.619,602.13 899.5,599.5 Z"/></g>
<g><path style="opacity:1" fill="#dd885f" d="M 755.5,603.5 C 755.322,606.216 754.822,608.883 754,611.5C 753.583,612.756 752.75,613.423 751.5,613.5C 752.267,609.851 753.6,606.518 755.5,603.5 Z"/></g>
<g><path style="opacity:1" fill="#e77f4f" d="M 895.5,609.5 C 894.208,614.382 892.541,619.048 890.5,623.5C 890.67,621.152 891.003,618.818 891.5,616.5C 891.21,614.956 890.544,613.623 889.5,612.5C 891.585,611.579 893.585,610.579 895.5,609.5 Z"/></g>
<g><path style="opacity:0.978" fill="#5cae6c" d="M 285.5,611.5 C 279.495,614.257 273.161,616.257 266.5,617.5C 267.335,616.057 268.668,615.057 270.5,614.5C 275.428,613.017 280.428,612.017 285.5,611.5 Z"/></g>
<g><path style="opacity:1" fill="#40a256" d="M 513.5,601.5 C 509.223,608.443 503.89,614.443 497.5,619.5C 498.49,616.849 499.49,614.183 500.5,611.5C 501.816,608.972 502.983,608.972 504,611.5C 504.859,608.341 506.025,605.341 507.5,602.5C 509.396,601.534 511.396,601.201 513.5,601.5 Z"/></g>
<g><path style="opacity:1" fill="#69b57d" d="M 265.5,617.5 C 260.739,619.326 255.739,620.659 250.5,621.5C 251.678,620.001 253.345,619.001 255.5,618.5C 258.768,617.513 262.102,617.18 265.5,617.5 Z"/></g>
<g><path style="opacity:0.322" fill="#91d89f" d="M 109.5,619.5 C 111.861,619.674 114.194,620.007 116.5,620.5C 116.5,620.833 116.5,621.167 116.5,621.5C 114.193,621.014 112.027,621.014 110,621.5C 109.536,620.906 109.369,620.239 109.5,619.5 Z"/></g>
<g><path style="opacity:1" fill="#60a877" d="M 119.5,621.5 C 122.698,620.964 125.365,621.631 127.5,623.5C 124.572,623.435 121.905,622.768 119.5,621.5 Z"/></g>
<g><path style="opacity:1" fill="#65ac74" d="M 236.5,623.5 C 233.411,624.785 230.078,625.451 226.5,625.5C 225.737,624.732 224.737,624.232 223.5,624C 227.821,623.501 232.154,623.334 236.5,623.5 Z"/></g>
<g><path style="opacity:0.678" fill="#6dbe87" d="M 131.5,623.5 C 136.414,623.362 141.081,624.028 145.5,625.5C 140.566,625.771 135.9,625.104 131.5,623.5 Z"/></g>
<g><path style="opacity:1" fill="#77b185" d="M 222.5,625.5 C 217.71,626.725 212.71,627.392 207.5,627.5C 212.056,625.558 217.056,624.892 222.5,625.5 Z"/></g>
<g><path style="opacity:0.98" fill="#e47743" d="M 749.5,618.5 C 750.28,621.709 750.114,624.709 749,627.5C 748.237,624.937 747.737,624.937 747.5,627.5C 749.356,630.036 749.689,632.702 748.5,635.5C 747.833,634.167 747.167,632.833 746.5,631.5C 743.735,635.031 742.068,639.031 741.5,643.5C 740.817,643.863 740.15,644.196 739.5,644.5C 742.32,635.544 745.654,626.878 749.5,618.5 Z"/></g>
<g><path style="opacity:0.902" fill="#5aab6c" d="M 494.5,623.5 C 489.833,628.833 484.833,633.833 479.5,638.5C 479.281,637.325 479.614,636.325 480.5,635.5C 484.632,630.688 489.299,626.688 494.5,623.5 Z"/></g>
<g><path style="opacity:1" fill="#e47c49" d="M 889.5,625.5 C 887.068,634.602 883.735,643.268 879.5,651.5C 879.927,648.212 879.26,645.212 877.5,642.5C 879.709,641.937 881.209,640.604 882,638.5C 882.696,635.522 883.196,632.522 883.5,629.5C 884.5,629.5 885.5,629.5 886.5,629.5C 886.5,628.167 886.5,626.833 886.5,625.5C 887.5,625.5 888.5,625.5 889.5,625.5 Z"/></g>
<g><path style="opacity:1" fill="#5cae6d" d="M 471.5,645.5 C 467.84,650.157 463.507,654.157 458.5,657.5C 458.5,656.5 458.5,655.5 458.5,654.5C 460.942,654.881 461.609,654.214 460.5,652.5C 464.215,650.094 467.882,647.761 471.5,645.5 Z"/></g>
<g><path style="opacity:1" fill="#48a062" d="M 391.5,651.5 C 390.256,654.543 387.923,655.876 384.5,655.5C 386.336,653.412 388.669,652.079 391.5,651.5 Z"/></g>
<g><path style="opacity:0.596" fill="#e5a380" d="M 879.5,651.5 C 879.413,654.578 878.08,656.911 875.5,658.5C 875.599,655.414 876.932,653.081 879.5,651.5 Z"/></g>
<g><path style="opacity:1" fill="#e37140" d="M 737.5,649.5 C 737.238,650.978 737.571,652.311 738.5,653.5C 741.206,655.524 742.539,658.19 742.5,661.5C 741.5,661.5 740.5,661.5 739.5,661.5C 739.5,662.833 739.5,664.167 739.5,665.5C 739.167,665.5 738.833,665.5 738.5,665.5C 736.073,663.492 735.073,660.826 735.5,657.5C 735.382,654.514 736.048,651.848 737.5,649.5 Z"/></g>
<g><path style="opacity:0.863" fill="#5eab6e" d="M 458.5,657.5 C 455.026,660.802 451.359,663.968 447.5,667C 445.922,668.094 444.255,668.928 442.5,669.5C 446.108,665.565 450.108,661.899 454.5,658.5C 455.689,657.571 457.022,657.238 458.5,657.5 Z"/></g>
<g><path style="opacity:0.047" fill="#f6d6b3" d="M 738.5,665.5 C 738.833,665.5 739.167,665.5 739.5,665.5C 740.5,665.833 741.167,666.5 741.5,667.5C 739.973,667.573 738.973,666.906 738.5,665.5 Z"/></g>
<g><path style="opacity:0.035" fill="#f1c2a0" d="M 866.5,665.5 C 865.486,666.674 864.153,667.34 862.5,667.5C 863.287,665.896 864.62,665.229 866.5,665.5 Z"/></g>
<g><path style="opacity:1" fill="#40a258" d="M 366.5,663.5 C 365.665,664.943 364.332,665.943 362.5,666.5C 363.5,667.167 364.5,667.833 365.5,668.5C 358.393,669.103 351.393,670.103 344.5,671.5C 351.69,668.532 359.023,665.866 366.5,663.5 Z"/></g>
<g><path style="opacity:0.878" fill="#6ab17b" d="M 442.5,669.5 C 440.627,672.449 437.961,674.449 434.5,675.5C 436.24,672.337 438.907,670.337 442.5,669.5 Z"/></g>
<g><path style="opacity:1" fill="#70b384" d="M 328.5,675.5 C 326.485,676.924 324.152,677.59 321.5,677.5C 323.515,676.076 325.848,675.41 328.5,675.5 Z"/></g>
<g><path style="opacity:1" fill="#3d9d54" d="M 343.5,671.5 C 343.67,672.822 343.337,673.989 342.5,675C 338.459,675.173 334.459,675.673 330.5,676.5C 324.478,679.172 318.145,680.172 311.5,679.5C 314.544,677.989 317.878,677.322 321.5,677.5C 324.152,677.59 326.485,676.924 328.5,675.5C 333.412,673.916 338.412,672.583 343.5,671.5 Z"/></g>
<g><path style="opacity:1" fill="#5dae71" d="M 434.5,675.5 C 428.881,679.983 422.881,683.983 416.5,687.5C 416.389,686.883 416.056,686.383 415.5,686C 420.528,683.37 425.194,680.204 429.5,676.5C 431.045,675.548 432.712,675.215 434.5,675.5 Z"/></g>
<g><path style="opacity:0.435" fill="#8cb693" d="M 308.5,679.5 C 306.162,681.04 303.495,681.706 300.5,681.5C 302.905,680.232 305.572,679.565 308.5,679.5 Z"/></g>
<g><path style="opacity:1" fill="#7bb58f" d="M 259.5,685.5 C 258.391,686.29 257.058,686.79 255.5,687C 250.845,687.499 246.179,687.666 241.5,687.5C 247.288,686.19 253.288,685.523 259.5,685.5 Z"/></g>
<g><path style="opacity:1" fill="#45a459" d="M 408.5,691.5 C 402.421,695.765 395.755,699.098 388.5,701.5C 388.577,700.25 389.244,699.417 390.5,699C 389.549,698.282 389.383,697.449 390,696.5C 392.017,692.918 394.517,692.585 397.5,695.5C 400.893,693.298 404.56,691.965 408.5,691.5 Z"/></g>
<g><path style="opacity:0.878" fill="#61ae71" d="M 383.5,703.5 C 380.2,705.642 376.533,706.975 372.5,707.5C 375.507,704.835 379.173,703.502 383.5,703.5 Z"/></g>
<g><path style="opacity:1" fill="#64ad75" d="M 226.5,696.5 C 225.222,704.163 225.222,711.829 226.5,719.5C 222.581,711.822 222.581,704.155 226.5,696.5 Z"/></g>
<g><path style="opacity:0.878" fill="#5eaf73" d="M 367.5,709.5 C 363.498,711.61 359.165,712.943 354.5,713.5C 356.025,711.964 358.025,710.964 360.5,710.5C 362.743,709.526 365.076,709.192 367.5,709.5 Z"/></g>
<g><path style="opacity:1" fill="#45a259" d="M 354.5,713.5 C 347.432,716.072 340.099,718.072 332.5,719.5C 332.722,717.393 333.722,715.726 335.5,714.5C 341.798,713.504 348.132,713.17 354.5,713.5 Z"/></g>
<g><path style="opacity:1" fill="#6daf7f" d="M 315.5,721.5 C 311.764,722.989 307.764,723.656 303.5,723.5C 307.029,721.577 311.029,720.911 315.5,721.5 Z"/></g>
<g><path style="opacity:1" fill="#4da565" d="M 227.5,719.5 C 231.399,720.701 235.399,721.701 239.5,722.5C 259.155,723.5 278.822,723.833 298.5,723.5C 295.023,724.323 291.356,724.823 287.5,725C 270.833,725.667 254.167,725.667 237.5,725C 234.382,724.127 231.382,722.961 228.5,721.5C 227.702,721.043 227.369,720.376 227.5,719.5 Z"/></g>
</svg>
